<?xml version="1.0" encoding="utf-8"?>
<svg version="1.1" xmlns="http://www.w3.org/2000/svg" xmlns:xlink="http://www.w3.org/1999/xlink" x="0px" y="0px"
	 viewBox="0 0 62.4 62.4" style="enable-background:new 0 0 62.4 62.4;" xml:space="preserve">
<style type="text/css">
  path {
    fill: #000;
  }

  @media (prefers-color-scheme: dark) {
    path {
      fill: #fff;
    }
  }
</style>
<path d="M31.2,59.4C17.1,59.4,5.7,48,5.7,33.9S17.1,8.4,31.2,8.4s25.5,11.4,25.5,25.5S45.3,59.4,31.2,59.4z M31.2,9.4
	c-13.5,0-24.5,11-24.5,24.5c0,13.5,11,24.5,24.5,24.5c13.5,0,24.5-11,24.5-24.5C55.7,20.4,44.7,9.4,31.2,9.4z"/>
<path d="M19.2,48.4c-1.4,0-2.5-1.1-2.5-2.5s1.1-2.5,2.5-2.5s2.5,1.1,2.5,2.5S20.6,48.4,19.2,48.4z M19.2,44.4
	c-0.8,0-1.5,0.7-1.5,1.5s0.7,1.5,1.5,1.5s1.5-0.7,1.5-1.5S20,44.4,19.2,44.4z"/>
<path d="M0.7,36.2c-0.3,0-0.5-0.2-0.5-0.5c0-0.3,0.2-0.5,0.5-0.5l3-0.2c0.3,0,0.5,0.2,0.5,0.5C4.3,35.8,4,36,3.8,36L0.7,36.2
	C0.8,36.2,0.8,36.2,0.7,36.2z"/>
<path d="M10,56.3c-0.1,0-0.3,0-0.4-0.1c-0.2-0.2-0.2-0.5,0-0.7l2-2c0.2-0.2,0.5-0.2,0.7,0s0.2,0.5,0,0.7l-2,2
	C10.3,56.2,10.2,56.3,10,56.3z"/>
<path d="M31.2,33.9"/>
<path d="M10,56.3c-0.1,0-0.3,0-0.4-0.1c-0.2-0.2-0.2-0.5,0-0.7l2-2c0.2-0.2,0.5-0.2,0.7,0s0.2,0.5,0,0.7l-2,2
	C10.3,56.2,10.2,56.3,10,56.3z"/>
<path d="M1.3,40.7c-0.2,0-0.4-0.2-0.5-0.4C0.8,40,1,39.8,1.2,39.7l2.9-0.6c0.3-0.1,0.5,0.1,0.6,0.4c0.1,0.3-0.1,0.5-0.4,0.6
	l-2.9,0.6C1.4,40.7,1.4,40.7,1.3,40.7z"/>
<path d="M2.6,45.1c-0.2,0-0.4-0.1-0.5-0.3c-0.1-0.3,0-0.5,0.3-0.6l2.8-1.1c0.3-0.1,0.5,0,0.6,0.3c0.1,0.3,0,0.5-0.3,0.6l-2.8,1.1
	C2.8,45.1,2.7,45.1,2.6,45.1z"/>
<path d="M4.6,49.4c-0.2,0-0.3-0.1-0.4-0.3c-0.1-0.2-0.1-0.5,0.2-0.7L7,47c0.2-0.1,0.5,0,0.7,0.2c0.1,0.2,0.1,0.5-0.2,0.7l-2.6,1.5
	C4.8,49.4,4.7,49.4,4.6,49.4z"/>
<path d="M7,53c-0.2,0-0.3-0.1-0.4-0.2c-0.2-0.2-0.1-0.5,0.1-0.7l2.4-1.8c0.2-0.2,0.5-0.1,0.7,0.1c0.2,0.2,0.1,0.5-0.1,0.7l-2.4,1.8
	C7.2,53,7.1,53,7,53z"/>
<path d="M3.8,32.2C3.8,32.2,3.8,32.2,3.8,32.2l-3-0.2c-0.3,0-0.5-0.3-0.5-0.5c0-0.3,0.3-0.5,0.5-0.5l3,0.2c0.3,0,0.5,0.3,0.5,0.5
	C4.3,32,4,32.2,3.8,32.2z"/>
<path d="M4.4,28.1c0,0-0.1,0-0.1,0l-2.9-0.7C1.1,27.4,1,27.1,1,26.8c0.1-0.3,0.3-0.4,0.6-0.4l2.9,0.7c0.3,0.1,0.4,0.3,0.4,0.6
	C4.9,28,4.6,28.1,4.4,28.1z"/>
<path d="M5.6,24.4c-0.1,0-0.1,0-0.2,0l-2.8-1.1c-0.3-0.1-0.4-0.4-0.3-0.6s0.4-0.4,0.6-0.3l2.8,1.1C6,23.5,6.2,23.8,6.1,24
	C6,24.2,5.8,24.4,5.6,24.4z"/>
<path d="M7.5,20.5c-0.1,0-0.2,0-0.3-0.1l-2.6-1.5c-0.2-0.1-0.3-0.4-0.2-0.7c0.1-0.2,0.4-0.3,0.7-0.2l2.6,1.5C8,19.7,8,20,7.9,20.3
	C7.8,20.4,7.6,20.5,7.5,20.5z"/>
<path d="M9.6,17.4c-0.1,0-0.2,0-0.3-0.1L7,15.4c-0.2-0.2-0.3-0.5-0.1-0.7s0.5-0.3,0.7-0.1l2.4,1.9c0.2,0.2,0.3,0.5,0.1,0.7
	C9.9,17.3,9.8,17.4,9.6,17.4z"/>
<path d="M12.4,14.3c-0.1,0-0.3-0.1-0.4-0.2L10,12c-0.2-0.2-0.2-0.5,0-0.7c0.2-0.2,0.5-0.2,0.7,0l2,2.2c0.2,0.2,0.2,0.5,0,0.7
	C12.7,14.3,12.5,14.3,12.4,14.3z"/>
<path d="M15.8,11.7c-0.2,0-0.3-0.1-0.4-0.2L13.7,9c-0.2-0.2-0.1-0.5,0.1-0.7c0.2-0.2,0.5-0.1,0.7,0.1l1.7,2.5
	c0.2,0.2,0.1,0.5-0.1,0.7C16,11.6,15.9,11.7,15.8,11.7z"/>
<path d="M19.3,9.6c-0.2,0-0.4-0.1-0.5-0.3l-1.3-2.7c-0.1-0.2,0-0.5,0.2-0.7c0.2-0.1,0.5,0,0.7,0.2l1.3,2.7c0.1,0.2,0,0.5-0.2,0.7
	C19.5,9.6,19.4,9.6,19.3,9.6z"/>
<path d="M23,8.2c-0.2,0-0.4-0.1-0.5-0.4L21.6,5c-0.1-0.3,0.1-0.5,0.3-0.6c0.3-0.1,0.5,0.1,0.6,0.3l0.9,2.9c0.1,0.3-0.1,0.5-0.3,0.6
	C23.1,8.2,23.1,8.2,23,8.2z"/>
<path d="M26.8,7.3c-0.2,0-0.5-0.2-0.5-0.4l-0.5-3c0-0.3,0.1-0.5,0.4-0.6c0.3,0,0.5,0.1,0.6,0.4l0.5,3C27.4,7,27.2,7.2,26.8,7.3
	C26.9,7.3,26.9,7.3,26.8,7.3z"/>
<path d="M31.2,6.9c-0.3,0-0.5-0.2-0.5-0.5v-3c0-0.3,0.2-0.5,0.5-0.5s0.5,0.2,0.5,0.5v3C31.7,6.7,31.5,6.9,31.2,6.9z"/>
<path d="M35.3,7.2C35.3,7.2,35.3,7.2,35.3,7.2c-0.3,0-0.5-0.3-0.5-0.6l0.4-3c0-0.3,0.3-0.5,0.6-0.4c0.3,0,0.5,0.3,0.4,0.6l-0.4,3
	C35.8,7.1,35.5,7.2,35.3,7.2z"/>
<path d="M39.1,8.1c0,0-0.1,0-0.1,0c-0.3-0.1-0.4-0.4-0.3-0.6l0.9-2.9c0.1-0.3,0.4-0.4,0.6-0.3c0.3,0.1,0.4,0.4,0.3,0.6l-0.9,2.9
	C39.6,8,39.4,8.1,39.1,8.1z"/>
<path d="M43.1,9.6c-0.1,0-0.1,0-0.2,0c-0.2-0.1-0.4-0.4-0.2-0.7L44,6.2C44.1,6,44.4,5.9,44.6,6c0.2,0.1,0.4,0.4,0.2,0.7l-1.3,2.7
	C43.5,9.5,43.3,9.6,43.1,9.6z"/>
<path d="M46.4,11.5c-0.1,0-0.2,0-0.3-0.1c-0.2-0.2-0.3-0.5-0.1-0.7l1.7-2.5C47.8,8,48.1,8,48.3,8.1c0.2,0.2,0.3,0.5,0.1,0.7
	l-1.7,2.5C46.7,11.4,46.6,11.5,46.4,11.5z"/>
<path d="M49.6,14c-0.1,0-0.2,0-0.3-0.1c-0.2-0.2-0.2-0.5,0-0.7l2-2.2c0.2-0.2,0.5-0.2,0.7,0c0.2,0.2,0.2,0.5,0,0.7l-2,2.2
	C49.9,14,49.8,14,49.6,14z"/>
<path d="M52.6,17.1c-0.1,0-0.3-0.1-0.4-0.2c-0.2-0.2-0.1-0.5,0.1-0.7l2.3-1.9c0.2-0.2,0.5-0.1,0.7,0.1s0.1,0.5-0.1,0.7L52.9,17
	C52.8,17.1,52.7,17.1,52.6,17.1z"/>
<path d="M54.9,20.5c-0.2,0-0.3-0.1-0.4-0.2c-0.1-0.2-0.1-0.5,0.2-0.7l2.6-1.5c0.2-0.1,0.5-0.1,0.7,0.2c0.1,0.2,0.1,0.5-0.2,0.7
	l-2.6,1.5C55.1,20.4,55,20.5,54.9,20.5z"/>
<path d="M56.7,24.2c-0.2,0-0.4-0.1-0.5-0.3c-0.1-0.3,0-0.5,0.3-0.6l2.8-1.1c0.3-0.1,0.5,0,0.7,0.3c0.1,0.3,0,0.5-0.3,0.6l-2.8,1.1
	C56.9,24.2,56.8,24.2,56.7,24.2z"/>
<path d="M58,28.2c-0.2,0-0.4-0.2-0.5-0.4c-0.1-0.3,0.1-0.5,0.4-0.6l2.9-0.7c0.3-0.1,0.5,0.1,0.6,0.4s-0.1,0.5-0.4,0.6l-2.9,0.7
	C58.1,28.2,58,28.2,58,28.2z"/>
<path d="M58.6,32.2c-0.3,0-0.5-0.2-0.5-0.5c0-0.3,0.2-0.5,0.5-0.5l3-0.2c0.2,0,0.5,0.2,0.5,0.5c0,0.3-0.2,0.5-0.5,0.5L58.6,32.2
	C58.6,32.2,58.6,32.2,58.6,32.2z"/>
<path d="M61.6,36.6C61.6,36.6,61.6,36.6,61.6,36.6l-3-0.2c-0.3,0-0.5-0.3-0.5-0.5c0-0.3,0.3-0.5,0.5-0.5l3,0.2
	c0.3,0,0.5,0.3,0.5,0.5C62.1,36.4,61.9,36.6,61.6,36.6z"/>
<path d="M61,41c0,0-0.1,0-0.1,0l-2.9-0.6c-0.3-0.1-0.4-0.3-0.4-0.6c0.1-0.3,0.3-0.4,0.6-0.4l2.9,0.6c0.3,0.1,0.4,0.3,0.4,0.6
	C61.4,40.8,61.2,41,61,41z"/>
<path d="M59.7,45.2c-0.1,0-0.1,0-0.2,0l-2.8-1.1c-0.3-0.1-0.4-0.4-0.3-0.6c0.1-0.3,0.4-0.4,0.6-0.3l2.8,1.1c0.3,0.1,0.4,0.4,0.3,0.6
	C60.1,45.1,59.9,45.2,59.7,45.2z"/>
<path d="M57.8,49.3c-0.1,0-0.2,0-0.2-0.1L55,47.8c-0.2-0.1-0.3-0.4-0.2-0.7c0.1-0.2,0.4-0.3,0.7-0.2l2.6,1.5
	c0.2,0.1,0.3,0.4,0.2,0.7C58.2,49.2,58,49.3,57.8,49.3z"/>
<path d="M55.3,53.1c-0.1,0-0.2,0-0.3-0.1l-2.4-1.8c-0.2-0.2-0.3-0.5-0.1-0.7c0.2-0.2,0.5-0.3,0.7-0.1l2.4,1.8
	c0.2,0.2,0.3,0.5,0.1,0.7C55.6,53,55.5,53.1,55.3,53.1z"/>
<path d="M52.3,56.4c-0.1,0-0.3-0.1-0.4-0.2l-2.1-2.2c-0.2-0.2-0.2-0.5,0-0.7c0.2-0.2,0.5-0.2,0.7,0l2.1,2.2c0.2,0.2,0.2,0.5,0,0.7
	C52.6,56.4,52.4,56.4,52.3,56.4z"/>
</svg>
