<svg width="147" height="139" viewBox="0 0 147 139" fill="none" xmlns="http://www.w3.org/2000/svg">
<line x1="130.5" y1="110" x2="130.5" y2="38" stroke="black"/>
<line y1="37.5" x2="131" y2="37.5" stroke="black"/>
<line x1="131" y1="73.5" x2="147" y2="73.5" stroke="black"/>
<line x1="44" y1="109.5" x2="131" y2="109.5" stroke="black"/>
<rect x="87.5" y="90.5" width="31" height="39" fill="white" stroke="black"/>
<path d="M131.153 131.668C131.027 131.626 130.901 131.682 130.859 131.822C130.355 133.6 129.403 134.482 127.989 134.482C127.023 134.482 126.239 134.048 125.623 133.152C125.035 132.298 124.741 131.206 124.741 129.862C124.741 128.742 124.937 127.762 125.329 126.908C125.889 125.732 126.743 125.144 127.905 125.144C128.759 125.144 129.473 125.494 129.991 126.194C130.327 126.628 130.537 127.132 130.663 127.734C130.677 127.832 130.747 127.902 130.831 127.902C130.957 127.902 131.041 127.818 131.041 127.692V125.298C131.041 125.172 130.971 125.088 130.873 125.088C130.761 125.088 130.677 125.172 130.663 125.284C130.635 125.536 130.565 125.662 130.467 125.662C130.411 125.662 130.299 125.592 130.145 125.466C129.487 124.92 128.717 124.64 127.849 124.64C126.729 124.64 125.805 125.088 125.063 125.97C124.195 126.992 123.775 128.322 123.775 129.974C123.775 131.626 124.195 132.942 125.035 133.908C125.777 134.776 126.701 135.21 127.835 135.21C128.689 135.21 129.431 134.916 130.061 134.314C130.649 133.754 131.069 132.956 131.321 131.934C131.349 131.822 131.293 131.71 131.195 131.682L131.153 131.668Z" fill="black"/>
<path d="M101.736 107.804C101.848 107.804 101.918 107.72 101.918 107.594V105.13C101.918 105.004 101.848 104.92 101.736 104.92C101.624 104.92 101.54 105.004 101.526 105.13C101.512 105.368 101.442 105.48 101.358 105.48C101.302 105.48 101.204 105.438 101.064 105.354C100.434 104.948 99.8036 104.752 99.1736 104.752C98.4456 104.752 97.8436 104.976 97.3676 105.424C96.8496 105.914 96.5836 106.572 96.5836 107.398C96.5836 108.14 96.8356 108.728 97.3396 109.176C97.6056 109.414 98.1796 109.708 99.0336 110.128L99.2576 110.24C100.084 110.646 100.63 110.996 100.882 111.318C101.162 111.682 101.316 112.102 101.316 112.564C101.316 113.194 101.148 113.67 100.812 114.034C100.49 114.384 100.056 114.552 99.5236 114.552C98.6976 114.552 98.0536 114.244 97.5496 113.6C97.1856 113.152 96.9616 112.522 96.8636 111.752C96.8496 111.64 96.7936 111.57 96.7096 111.57C96.5836 111.57 96.4996 111.654 96.4996 111.78V114.622C96.4996 114.748 96.5696 114.832 96.6536 114.832C96.7796 114.832 96.8636 114.748 96.8776 114.622C96.8916 114.342 96.9616 114.202 97.0876 114.202C97.1856 114.202 97.3256 114.286 97.4936 114.412C98.1236 114.888 98.7956 115.112 99.5236 115.112C100.182 115.112 100.742 114.93 101.232 114.552C101.89 114.048 102.226 113.306 102.226 112.354C102.226 111.724 102.058 111.178 101.708 110.716C101.344 110.24 100.546 109.722 99.2856 109.19L98.9916 109.064C97.9556 108.616 97.4236 108 97.4236 107.16C97.4236 106.684 97.5776 106.264 97.8436 105.914C98.1796 105.48 98.6416 105.256 99.2156 105.256C99.9296 105.256 100.49 105.536 100.91 106.054C101.246 106.488 101.456 106.992 101.54 107.622C101.554 107.734 101.624 107.804 101.736 107.804ZM110.519 111.738C110.519 111.612 110.435 111.528 110.309 111.528H108.965V105.046C108.965 104.92 108.881 104.836 108.755 104.836H108.629C108.573 104.836 108.517 104.864 108.475 104.92L104.149 111.416C104.135 111.444 104.121 111.472 104.121 111.514V111.92C104.121 112.046 104.205 112.13 104.331 112.13H108.223V113.376C108.223 113.866 108.083 114.174 107.831 114.3C107.705 114.37 107.467 114.426 107.117 114.454C107.005 114.468 106.921 114.538 106.921 114.65C106.921 114.776 107.005 114.86 107.131 114.86H109.931C110.057 114.86 110.141 114.776 110.141 114.65C110.141 114.538 110.057 114.468 109.945 114.454C109.581 114.412 109.315 114.342 109.189 114.23C109.049 114.118 108.965 113.824 108.965 113.376V112.13H110.309C110.435 112.13 110.519 112.046 110.519 111.92V111.738ZM108.223 106.264V111.528H104.723L108.223 106.264Z" fill="black"/>
<rect x="13.5" y="90.5" width="31" height="39" fill="white" stroke="black"/>
<path d="M58.6151 134.664C58.6151 134.552 58.5311 134.468 58.4191 134.454C58.0831 134.426 57.8451 134.37 57.7051 134.272C57.5091 134.146 57.3971 133.838 57.3971 133.348V126.516C57.3971 126.012 57.5231 125.704 57.7611 125.578C57.9151 125.494 58.1391 125.438 58.4191 125.396C58.5311 125.382 58.6151 125.312 58.6151 125.2C58.6151 125.074 58.5311 124.99 58.4051 124.99H56.3611C56.2771 124.99 56.2071 125.046 56.1791 125.13L53.5051 133.348L50.8171 125.13C50.7891 125.046 50.7191 124.99 50.6351 124.99H48.4931C48.3671 124.99 48.2831 125.074 48.2831 125.2C48.2831 125.312 48.3671 125.382 48.4791 125.396C48.8571 125.438 49.0811 125.508 49.2071 125.578C49.4171 125.704 49.5151 126.026 49.5151 126.53V133.362C49.5151 133.866 49.4031 134.188 49.1791 134.3C49.0251 134.384 48.8151 134.426 48.5211 134.454C48.4091 134.468 48.3251 134.538 48.3251 134.65C48.3251 134.776 48.4091 134.86 48.5351 134.86H51.0551C51.1811 134.86 51.2651 134.776 51.2651 134.664C51.2651 134.552 51.1811 134.468 51.0691 134.454C50.7751 134.412 50.5651 134.37 50.4111 134.272C50.2151 134.146 50.1031 133.838 50.1031 133.362V125.69H50.1591L53.0991 134.72C53.1271 134.804 53.1971 134.86 53.2811 134.86H53.4211C53.5051 134.86 53.5751 134.804 53.6031 134.72L56.5571 125.676H56.5851V133.348C56.5851 133.866 56.4871 134.188 56.2491 134.3C56.1231 134.37 55.8991 134.426 55.5911 134.454C55.4791 134.468 55.3951 134.538 55.3951 134.65C55.3951 134.776 55.4791 134.86 55.6051 134.86H58.4051C58.5311 134.86 58.6151 134.776 58.6151 134.664Z" fill="black"/>
<path d="M27.7425 107.804C27.8545 107.804 27.9245 107.72 27.9245 107.594V105.13C27.9245 105.004 27.8545 104.92 27.7425 104.92C27.6305 104.92 27.5465 105.004 27.5325 105.13C27.5185 105.368 27.4485 105.48 27.3645 105.48C27.3085 105.48 27.2105 105.438 27.0705 105.354C26.4405 104.948 25.8105 104.752 25.1805 104.752C24.4525 104.752 23.8505 104.976 23.3745 105.424C22.8565 105.914 22.5905 106.572 22.5905 107.398C22.5905 108.14 22.8425 108.728 23.3465 109.176C23.6125 109.414 24.1865 109.708 25.0405 110.128L25.2645 110.24C26.0905 110.646 26.6365 110.996 26.8885 111.318C27.1685 111.682 27.3225 112.102 27.3225 112.564C27.3225 113.194 27.1545 113.67 26.8185 114.034C26.4965 114.384 26.0625 114.552 25.5305 114.552C24.7045 114.552 24.0605 114.244 23.5565 113.6C23.1925 113.152 22.9685 112.522 22.8705 111.752C22.8565 111.64 22.8005 111.57 22.7165 111.57C22.5905 111.57 22.5065 111.654 22.5065 111.78V114.622C22.5065 114.748 22.5765 114.832 22.6605 114.832C22.7865 114.832 22.8705 114.748 22.8845 114.622C22.8985 114.342 22.9685 114.202 23.0945 114.202C23.1925 114.202 23.3325 114.286 23.5005 114.412C24.1305 114.888 24.8025 115.112 25.5305 115.112C26.1885 115.112 26.7485 114.93 27.2385 114.552C27.8965 114.048 28.2325 113.306 28.2325 112.354C28.2325 111.724 28.0645 111.178 27.7145 110.716C27.3505 110.24 26.5525 109.722 25.2925 109.19L24.9985 109.064C23.9625 108.616 23.4305 108 23.4305 107.16C23.4305 106.684 23.5845 106.264 23.8505 105.914C24.1865 105.48 24.6485 105.256 25.2225 105.256C25.9365 105.256 26.4965 105.536 26.9165 106.054C27.2525 106.488 27.4625 106.992 27.5465 107.622C27.5605 107.734 27.6305 107.804 27.7425 107.804ZM33.7675 109.596C35.0695 109.288 35.7135 108.462 35.7135 107.132C35.7135 106.474 35.5175 105.914 35.1395 105.466C34.6915 104.934 34.0475 104.654 33.2075 104.654C32.5775 104.654 32.0035 104.864 31.5135 105.27C30.9675 105.718 30.7015 106.236 30.7015 106.81C30.7015 107.412 30.9255 107.706 31.3595 107.706C31.7655 107.706 31.9475 107.468 31.9475 107.006C31.9475 106.586 31.7655 106.376 31.3875 106.376C31.4575 106.124 31.5975 105.9 31.8075 105.704C32.1715 105.368 32.6055 105.186 33.1235 105.186C33.6275 105.186 34.0475 105.382 34.3835 105.76C34.6775 106.11 34.8455 106.558 34.8455 107.118C34.8455 107.804 34.6495 108.364 34.2715 108.812C33.9075 109.232 33.4595 109.442 32.8995 109.442H32.5215C32.3955 109.442 32.3115 109.526 32.3115 109.652V109.792C32.3115 109.918 32.3955 110.002 32.5215 110.002H32.8995C33.5855 110.002 34.1035 110.24 34.4955 110.688C34.8595 111.108 35.0275 111.64 35.0275 112.27C35.0275 112.956 34.8315 113.502 34.4535 113.95C34.0615 114.426 33.5715 114.664 32.9555 114.664C32.3395 114.664 31.8495 114.468 31.5135 114.076C31.3175 113.866 31.2195 113.614 31.1915 113.362C31.2335 113.376 31.2895 113.376 31.3315 113.376C31.6815 113.376 31.8355 113.166 31.8355 112.732C31.8355 112.27 31.6395 112.032 31.2335 112.032C30.7575 112.032 30.5195 112.368 30.5195 113.026C30.5195 113.614 30.7575 114.118 31.2055 114.524C31.7095 115 32.3115 115.224 33.0395 115.224C33.9775 115.224 34.7195 114.902 35.2515 114.244C35.6995 113.712 35.9375 113.068 35.9375 112.298C35.9375 110.898 35.2235 110.03 33.7675 109.694V109.596Z" fill="black"/>
<rect x="87.5" y="18.5" width="31" height="39" fill="white" stroke="black"/>
<path d="M131.153 21.668C131.027 21.626 130.901 21.682 130.859 21.822C130.355 23.6 129.403 24.482 127.989 24.482C127.023 24.482 126.239 24.048 125.623 23.152C125.035 22.298 124.741 21.206 124.741 19.862C124.741 18.742 124.937 17.762 125.329 16.908C125.889 15.732 126.743 15.144 127.905 15.144C128.759 15.144 129.473 15.494 129.991 16.194C130.327 16.628 130.537 17.132 130.663 17.734C130.677 17.832 130.747 17.902 130.831 17.902C130.957 17.902 131.041 17.818 131.041 17.692V15.298C131.041 15.172 130.971 15.088 130.873 15.088C130.761 15.088 130.677 15.172 130.663 15.284C130.635 15.536 130.565 15.662 130.467 15.662C130.411 15.662 130.299 15.592 130.145 15.466C129.487 14.92 128.717 14.64 127.849 14.64C126.729 14.64 125.805 15.088 125.063 15.97C124.195 16.992 123.775 18.322 123.775 19.974C123.775 21.626 124.195 22.942 125.035 23.908C125.777 24.776 126.701 25.21 127.835 25.21C128.689 25.21 129.431 24.916 130.061 24.314C130.649 23.754 131.069 22.956 131.321 21.934C131.349 21.822 131.293 21.71 131.195 21.682L131.153 21.668Z" fill="black"/>
<path d="M101.729 35.804C101.841 35.804 101.911 35.72 101.911 35.594V33.13C101.911 33.004 101.841 32.92 101.729 32.92C101.617 32.92 101.533 33.004 101.519 33.13C101.505 33.368 101.435 33.48 101.351 33.48C101.295 33.48 101.197 33.438 101.057 33.354C100.427 32.948 99.7968 32.752 99.1668 32.752C98.4388 32.752 97.8368 32.976 97.3608 33.424C96.8428 33.914 96.5768 34.572 96.5768 35.398C96.5768 36.14 96.8288 36.728 97.3328 37.176C97.5988 37.414 98.1728 37.708 99.0268 38.128L99.2508 38.24C100.077 38.646 100.623 38.996 100.875 39.318C101.155 39.682 101.309 40.102 101.309 40.564C101.309 41.194 101.141 41.67 100.805 42.034C100.483 42.384 100.049 42.552 99.5168 42.552C98.6908 42.552 98.0468 42.244 97.5428 41.6C97.1788 41.152 96.9548 40.522 96.8568 39.752C96.8428 39.64 96.7868 39.57 96.7028 39.57C96.5768 39.57 96.4928 39.654 96.4928 39.78V42.622C96.4928 42.748 96.5628 42.832 96.6468 42.832C96.7728 42.832 96.8568 42.748 96.8708 42.622C96.8848 42.342 96.9548 42.202 97.0808 42.202C97.1788 42.202 97.3188 42.286 97.4868 42.412C98.1168 42.888 98.7888 43.112 99.5168 43.112C100.175 43.112 100.735 42.93 101.225 42.552C101.883 42.048 102.219 41.306 102.219 40.354C102.219 39.724 102.051 39.178 101.701 38.716C101.337 38.24 100.539 37.722 99.2788 37.19L98.9848 37.064C97.9488 36.616 97.4168 36 97.4168 35.16C97.4168 34.684 97.5708 34.264 97.8368 33.914C98.1728 33.48 98.6348 33.256 99.2088 33.256C99.9228 33.256 100.483 33.536 100.903 34.054C101.239 34.488 101.449 34.992 101.533 35.622C101.547 35.734 101.617 35.804 101.729 35.804ZM109.966 39.99C109.868 39.99 109.784 40.06 109.77 40.172C109.644 40.928 109.504 41.404 109.378 41.614C109.224 41.88 108.902 42.006 108.412 42.006H105.262C105.486 40.83 106.242 39.738 107.53 38.772L107.866 38.52C108.664 37.918 109.196 37.386 109.476 36.924C109.77 36.434 109.91 35.902 109.91 35.314C109.91 34.46 109.63 33.788 109.084 33.284C108.608 32.85 108.02 32.64 107.32 32.64C106.564 32.64 105.976 32.92 105.514 33.452C105.066 33.97 104.842 34.544 104.842 35.188C104.842 35.804 105.08 36.126 105.542 36.126C105.92 36.126 106.116 35.902 106.116 35.44C106.116 35.02 105.92 34.796 105.542 34.782C105.556 34.488 105.64 34.208 105.808 33.928C106.116 33.41 106.606 33.158 107.278 33.158C107.698 33.158 108.062 33.298 108.37 33.564C108.776 33.942 108.986 34.502 108.986 35.244C108.986 35.79 108.832 36.294 108.538 36.784C108.314 37.134 107.88 37.596 107.236 38.184L107.04 38.366C105.682 39.626 104.884 40.956 104.632 42.286C104.632 42.286 104.632 42.3 104.632 42.314V42.65C104.632 42.776 104.716 42.86 104.842 42.86H109.658C109.77 42.86 109.868 42.79 109.868 42.678L110.106 40.228C110.12 40.102 110.064 39.99 109.966 39.99Z" fill="black"/>
<line x1="0.5" y1="37" x2="0.5" y2="1" stroke="black"/>
<line x1="59.5" y1="37" x2="59.5" y2="1" stroke="black"/>
<line y1="0.5" x2="60" y2="0.5" stroke="black"/>
<rect x="14.5" y="17.5" width="31" height="39" fill="white" stroke="black"/>
<path d="M28.7425 34.804C28.8545 34.804 28.9245 34.72 28.9245 34.594V32.13C28.9245 32.004 28.8545 31.92 28.7425 31.92C28.6305 31.92 28.5465 32.004 28.5325 32.13C28.5185 32.368 28.4485 32.48 28.3645 32.48C28.3085 32.48 28.2105 32.438 28.0705 32.354C27.4405 31.948 26.8105 31.752 26.1805 31.752C25.4525 31.752 24.8505 31.976 24.3745 32.424C23.8565 32.914 23.5905 33.572 23.5905 34.398C23.5905 35.14 23.8425 35.728 24.3465 36.176C24.6125 36.414 25.1865 36.708 26.0405 37.128L26.2645 37.24C27.0905 37.646 27.6365 37.996 27.8885 38.318C28.1685 38.682 28.3225 39.102 28.3225 39.564C28.3225 40.194 28.1545 40.67 27.8185 41.034C27.4965 41.384 27.0625 41.552 26.5305 41.552C25.7045 41.552 25.0605 41.244 24.5565 40.6C24.1925 40.152 23.9685 39.522 23.8705 38.752C23.8565 38.64 23.8005 38.57 23.7165 38.57C23.5905 38.57 23.5065 38.654 23.5065 38.78V41.622C23.5065 41.748 23.5765 41.832 23.6605 41.832C23.7865 41.832 23.8705 41.748 23.8845 41.622C23.8985 41.342 23.9685 41.202 24.0945 41.202C24.1925 41.202 24.3325 41.286 24.5005 41.412C25.1305 41.888 25.8025 42.112 26.5305 42.112C27.1885 42.112 27.7485 41.93 28.2385 41.552C28.8965 41.048 29.2325 40.306 29.2325 39.354C29.2325 38.724 29.0645 38.178 28.7145 37.716C28.3505 37.24 27.5525 36.722 26.2925 36.19L25.9985 36.064C24.9625 35.616 24.4305 35 24.4305 34.16C24.4305 33.684 24.5845 33.264 24.8505 32.914C25.1865 32.48 25.6485 32.256 26.2225 32.256C26.9365 32.256 27.4965 32.536 27.9165 33.054C28.2525 33.488 28.4625 33.992 28.5465 34.622C28.5605 34.734 28.6305 34.804 28.7425 34.804ZM36.3775 41.636C36.3775 41.51 36.2795 41.426 36.1535 41.426C35.6355 41.412 35.3135 41.356 35.1595 41.258C34.9215 41.104 34.7955 40.824 34.7955 40.39V32.13C34.7955 31.878 34.5715 31.766 34.3615 31.892C33.8855 32.158 33.2135 32.354 32.3455 32.466C32.2335 32.48 32.1635 32.564 32.1635 32.676C32.1635 32.802 32.2475 32.886 32.3735 32.886H33.3535C33.7595 32.886 33.9695 33.138 33.9695 33.628V40.39C33.9695 40.852 33.8295 41.146 33.5635 41.286C33.4095 41.37 33.0735 41.412 32.5555 41.426C32.4295 41.426 32.3315 41.51 32.3315 41.636V41.65C32.3315 41.776 32.4155 41.86 32.5415 41.86H36.1675C36.2935 41.86 36.3775 41.776 36.3775 41.65V41.636Z" fill="black"/>
<path d="M59.6151 61.664C59.6151 61.552 59.5311 61.468 59.4191 61.454C59.0831 61.426 58.8451 61.37 58.7051 61.272C58.5091 61.146 58.3971 60.838 58.3971 60.348V53.516C58.3971 53.012 58.5231 52.704 58.7611 52.578C58.9151 52.494 59.1391 52.438 59.4191 52.396C59.5311 52.382 59.6151 52.312 59.6151 52.2C59.6151 52.074 59.5311 51.99 59.4051 51.99H57.3611C57.2771 51.99 57.2071 52.046 57.1791 52.13L54.5051 60.348L51.8171 52.13C51.7891 52.046 51.7191 51.99 51.6351 51.99H49.4931C49.3671 51.99 49.2831 52.074 49.2831 52.2C49.2831 52.312 49.3671 52.382 49.4791 52.396C49.8571 52.438 50.0811 52.508 50.2071 52.578C50.4171 52.704 50.5151 53.026 50.5151 53.53V60.362C50.5151 60.866 50.4031 61.188 50.1791 61.3C50.0251 61.384 49.8151 61.426 49.5211 61.454C49.4091 61.468 49.3251 61.538 49.3251 61.65C49.3251 61.776 49.4091 61.86 49.5351 61.86H52.0551C52.1811 61.86 52.2651 61.776 52.2651 61.664C52.2651 61.552 52.1811 61.468 52.0691 61.454C51.7751 61.412 51.5651 61.37 51.4111 61.272C51.2151 61.146 51.1031 60.838 51.1031 60.362V52.69H51.1591L54.0991 61.72C54.1271 61.804 54.1971 61.86 54.2811 61.86H54.4211C54.5051 61.86 54.5751 61.804 54.6031 61.72L57.5571 52.676H57.5851V60.348C57.5851 60.866 57.4871 61.188 57.2491 61.3C57.1231 61.37 56.8991 61.426 56.5911 61.454C56.4791 61.468 56.3951 61.538 56.3951 61.65C56.3951 61.776 56.4791 61.86 56.6051 61.86H59.4051C59.5311 61.86 59.6151 61.776 59.6151 61.664Z" fill="black"/>
</svg>
