<svg width="183" height="180" viewBox="0 0 183 180" fill="none" xmlns="http://www.w3.org/2000/svg">
<line x1="91" y1="179.5" x2="107" y2="179.5" stroke="black"/>
<line x1="90.5" y1="180" x2="90.5" y2="128" stroke="black"/>
<line x1="34" y1="145.5" x2="149" y2="145.5" stroke="black"/>
<line x1="34.5" y1="1" x2="34.5" y2="146" stroke="black"/>
<line x1="63.5" y1="-2.18557e-08" x2="63.5" y2="74" stroke="black"/>
<line x1="34" y1="0.5" x2="63" y2="0.5" stroke="black"/>
<line x1="34" y1="73.5" x2="63" y2="73.5" stroke="black"/>
<line x1="148.5" y1="146" x2="148.5" y2="129" stroke="black"/>
<rect x="18.5" y="18.5" width="31" height="39" fill="white" stroke="black"/>
<path d="M32.7425 35.804C32.8545 35.804 32.9245 35.72 32.9245 35.594V33.13C32.9245 33.004 32.8545 32.92 32.7425 32.92C32.6305 32.92 32.5465 33.004 32.5325 33.13C32.5185 33.368 32.4485 33.48 32.3645 33.48C32.3085 33.48 32.2105 33.438 32.0705 33.354C31.4405 32.948 30.8105 32.752 30.1805 32.752C29.4525 32.752 28.8505 32.976 28.3745 33.424C27.8565 33.914 27.5905 34.572 27.5905 35.398C27.5905 36.14 27.8425 36.728 28.3465 37.176C28.6125 37.414 29.1865 37.708 30.0405 38.128L30.2645 38.24C31.0905 38.646 31.6365 38.996 31.8885 39.318C32.1685 39.682 32.3225 40.102 32.3225 40.564C32.3225 41.194 32.1545 41.67 31.8185 42.034C31.4965 42.384 31.0625 42.552 30.5305 42.552C29.7045 42.552 29.0605 42.244 28.5565 41.6C28.1925 41.152 27.9685 40.522 27.8705 39.752C27.8565 39.64 27.8005 39.57 27.7165 39.57C27.5905 39.57 27.5065 39.654 27.5065 39.78V42.622C27.5065 42.748 27.5765 42.832 27.6605 42.832C27.7865 42.832 27.8705 42.748 27.8845 42.622C27.8985 42.342 27.9685 42.202 28.0945 42.202C28.1925 42.202 28.3325 42.286 28.5005 42.412C29.1305 42.888 29.8025 43.112 30.5305 43.112C31.1885 43.112 31.7485 42.93 32.2385 42.552C32.8965 42.048 33.2325 41.306 33.2325 40.354C33.2325 39.724 33.0645 39.178 32.7145 38.716C32.3505 38.24 31.5525 37.722 30.2925 37.19L29.9985 37.064C28.9625 36.616 28.4305 36 28.4305 35.16C28.4305 34.684 28.5845 34.264 28.8505 33.914C29.1865 33.48 29.6485 33.256 30.2225 33.256C30.9365 33.256 31.4965 33.536 31.9165 34.054C32.2525 34.488 32.4625 34.992 32.5465 35.622C32.5605 35.734 32.6305 35.804 32.7425 35.804ZM40.3775 42.636C40.3775 42.51 40.2795 42.426 40.1535 42.426C39.6355 42.412 39.3135 42.356 39.1595 42.258C38.9215 42.104 38.7955 41.824 38.7955 41.39V33.13C38.7955 32.878 38.5715 32.766 38.3615 32.892C37.8855 33.158 37.2135 33.354 36.3455 33.466C36.2335 33.48 36.1635 33.564 36.1635 33.676C36.1635 33.802 36.2475 33.886 36.3735 33.886H37.3535C37.7595 33.886 37.9695 34.138 37.9695 34.628V41.39C37.9695 41.852 37.8295 42.146 37.5635 42.286C37.4095 42.37 37.0735 42.412 36.5555 42.426C36.4295 42.426 36.3315 42.51 36.3315 42.636V42.65C36.3315 42.776 36.4155 42.86 36.5415 42.86H40.1675C40.2935 42.86 40.3775 42.776 40.3775 42.65V42.636Z" fill="black"/>
<path d="M13.6151 62.664C13.6151 62.552 13.5311 62.468 13.4191 62.454C13.0831 62.426 12.8451 62.37 12.7051 62.272C12.5091 62.146 12.3971 61.838 12.3971 61.348V54.516C12.3971 54.012 12.5231 53.704 12.7611 53.578C12.9151 53.494 13.1391 53.438 13.4191 53.396C13.5311 53.382 13.6151 53.312 13.6151 53.2C13.6151 53.074 13.5311 52.99 13.4051 52.99H11.3611C11.2771 52.99 11.2071 53.046 11.1791 53.13L8.50515 61.348L5.81715 53.13C5.78915 53.046 5.71915 52.99 5.63515 52.99H3.49315C3.36715 52.99 3.28315 53.074 3.28315 53.2C3.28315 53.312 3.36715 53.382 3.47915 53.396C3.85715 53.438 4.08115 53.508 4.20715 53.578C4.41715 53.704 4.51515 54.026 4.51515 54.53V61.362C4.51515 61.866 4.40315 62.188 4.17915 62.3C4.02515 62.384 3.81515 62.426 3.52115 62.454C3.40915 62.468 3.32515 62.538 3.32515 62.65C3.32515 62.776 3.40915 62.86 3.53515 62.86H6.05515C6.18115 62.86 6.26515 62.776 6.26515 62.664C6.26515 62.552 6.18115 62.468 6.06915 62.454C5.77515 62.412 5.56515 62.37 5.41115 62.272C5.21515 62.146 5.10315 61.838 5.10315 61.362V53.69H5.15915L8.09915 62.72C8.12715 62.804 8.19715 62.86 8.28115 62.86H8.42115C8.50515 62.86 8.57515 62.804 8.60315 62.72L11.5571 53.676H11.5851V61.348C11.5851 61.866 11.4871 62.188 11.2491 62.3C11.1231 62.37 10.8991 62.426 10.5911 62.454C10.4791 62.468 10.3951 62.538 10.3951 62.65C10.3951 62.776 10.4791 62.86 10.6051 62.86H13.4051C13.5311 62.86 13.6151 62.776 13.6151 62.664Z" fill="black"/>
<rect x="18.5" y="88.5" width="31" height="39" fill="white" stroke="black"/>
<path d="M64.1527 129.668C64.0267 129.626 63.9007 129.682 63.8587 129.822C63.3547 131.6 62.4027 132.482 60.9887 132.482C60.0227 132.482 59.2387 132.048 58.6227 131.152C58.0347 130.298 57.7407 129.206 57.7407 127.862C57.7407 126.742 57.9367 125.762 58.3287 124.908C58.8887 123.732 59.7427 123.144 60.9047 123.144C61.7587 123.144 62.4727 123.494 62.9907 124.194C63.3267 124.628 63.5367 125.132 63.6627 125.734C63.6767 125.832 63.7467 125.902 63.8307 125.902C63.9567 125.902 64.0407 125.818 64.0407 125.692V123.298C64.0407 123.172 63.9707 123.088 63.8727 123.088C63.7607 123.088 63.6767 123.172 63.6627 123.284C63.6347 123.536 63.5647 123.662 63.4667 123.662C63.4107 123.662 63.2987 123.592 63.1447 123.466C62.4867 122.92 61.7167 122.64 60.8487 122.64C59.7287 122.64 58.8047 123.088 58.0627 123.97C57.1947 124.992 56.7747 126.322 56.7747 127.974C56.7747 129.626 57.1947 130.942 58.0347 131.908C58.7767 132.776 59.7007 133.21 60.8347 133.21C61.6887 133.21 62.4307 132.916 63.0607 132.314C63.6487 131.754 64.0687 130.956 64.3207 129.934C64.3487 129.822 64.2927 129.71 64.1947 129.682L64.1527 129.668Z" fill="black"/>
<path d="M32.7288 105.804C32.8408 105.804 32.9108 105.72 32.9108 105.594V103.13C32.9108 103.004 32.8408 102.92 32.7288 102.92C32.6168 102.92 32.5328 103.004 32.5188 103.13C32.5048 103.368 32.4348 103.48 32.3508 103.48C32.2948 103.48 32.1968 103.438 32.0568 103.354C31.4268 102.948 30.7968 102.752 30.1668 102.752C29.4388 102.752 28.8368 102.976 28.3608 103.424C27.8428 103.914 27.5768 104.572 27.5768 105.398C27.5768 106.14 27.8288 106.728 28.3328 107.176C28.5988 107.414 29.1728 107.708 30.0268 108.128L30.2508 108.24C31.0768 108.646 31.6228 108.996 31.8748 109.318C32.1548 109.682 32.3088 110.102 32.3088 110.564C32.3088 111.194 32.1408 111.67 31.8048 112.034C31.4828 112.384 31.0488 112.552 30.5168 112.552C29.6908 112.552 29.0468 112.244 28.5428 111.6C28.1788 111.152 27.9548 110.522 27.8568 109.752C27.8428 109.64 27.7868 109.57 27.7028 109.57C27.5768 109.57 27.4928 109.654 27.4928 109.78V112.622C27.4928 112.748 27.5628 112.832 27.6468 112.832C27.7728 112.832 27.8568 112.748 27.8708 112.622C27.8848 112.342 27.9548 112.202 28.0808 112.202C28.1788 112.202 28.3188 112.286 28.4868 112.412C29.1168 112.888 29.7888 113.112 30.5168 113.112C31.1748 113.112 31.7348 112.93 32.2248 112.552C32.8828 112.048 33.2188 111.306 33.2188 110.354C33.2188 109.724 33.0508 109.178 32.7008 108.716C32.3368 108.24 31.5388 107.722 30.2788 107.19L29.9848 107.064C28.9488 106.616 28.4168 106 28.4168 105.16C28.4168 104.684 28.5708 104.264 28.8368 103.914C29.1728 103.48 29.6348 103.256 30.2088 103.256C30.9228 103.256 31.4828 103.536 31.9028 104.054C32.2388 104.488 32.4488 104.992 32.5328 105.622C32.5468 105.734 32.6168 105.804 32.7288 105.804ZM40.9658 109.99C40.8678 109.99 40.7838 110.06 40.7698 110.172C40.6438 110.928 40.5038 111.404 40.3778 111.614C40.2238 111.88 39.9018 112.006 39.4118 112.006H36.2618C36.4858 110.83 37.2418 109.738 38.5298 108.772L38.8658 108.52C39.6638 107.918 40.1958 107.386 40.4758 106.924C40.7698 106.434 40.9098 105.902 40.9098 105.314C40.9098 104.46 40.6298 103.788 40.0838 103.284C39.6078 102.85 39.0198 102.64 38.3198 102.64C37.5638 102.64 36.9758 102.92 36.5138 103.452C36.0658 103.97 35.8418 104.544 35.8418 105.188C35.8418 105.804 36.0798 106.126 36.5418 106.126C36.9198 106.126 37.1158 105.902 37.1158 105.44C37.1158 105.02 36.9198 104.796 36.5418 104.782C36.5558 104.488 36.6398 104.208 36.8078 103.928C37.1158 103.41 37.6058 103.158 38.2778 103.158C38.6978 103.158 39.0618 103.298 39.3698 103.564C39.7758 103.942 39.9858 104.502 39.9858 105.244C39.9858 105.79 39.8318 106.294 39.5378 106.784C39.3138 107.134 38.8798 107.596 38.2358 108.184L38.0398 108.366C36.6818 109.626 35.8838 110.956 35.6318 112.286C35.6318 112.286 35.6318 112.3 35.6318 112.314V112.65C35.6318 112.776 35.7158 112.86 35.8418 112.86H40.6578C40.7698 112.86 40.8678 112.79 40.8678 112.678L41.1058 110.228C41.1198 110.102 41.0638 109.99 40.9658 109.99Z" fill="black"/>
<rect x="77.5" y="89.5" width="31" height="39" fill="white" stroke="black"/>
<path d="M123.153 130.668C123.027 130.626 122.901 130.682 122.859 130.822C122.355 132.6 121.403 133.482 119.989 133.482C119.023 133.482 118.239 133.048 117.623 132.152C117.035 131.298 116.741 130.206 116.741 128.862C116.741 127.742 116.937 126.762 117.329 125.908C117.889 124.732 118.743 124.144 119.905 124.144C120.759 124.144 121.473 124.494 121.991 125.194C122.327 125.628 122.537 126.132 122.663 126.734C122.677 126.832 122.747 126.902 122.831 126.902C122.957 126.902 123.041 126.818 123.041 126.692V124.298C123.041 124.172 122.971 124.088 122.873 124.088C122.761 124.088 122.677 124.172 122.663 124.284C122.635 124.536 122.565 124.662 122.467 124.662C122.411 124.662 122.299 124.592 122.145 124.466C121.487 123.92 120.717 123.64 119.849 123.64C118.729 123.64 117.805 124.088 117.063 124.97C116.195 125.992 115.775 127.322 115.775 128.974C115.775 130.626 116.195 131.942 117.035 132.908C117.777 133.776 118.701 134.21 119.835 134.21C120.689 134.21 121.431 133.916 122.061 133.314C122.649 132.754 123.069 131.956 123.321 130.934C123.349 130.822 123.293 130.71 123.195 130.682L123.153 130.668Z" fill="black"/>
<path d="M91.7425 106.804C91.8545 106.804 91.9245 106.72 91.9245 106.594V104.13C91.9245 104.004 91.8545 103.92 91.7425 103.92C91.6305 103.92 91.5465 104.004 91.5325 104.13C91.5185 104.368 91.4485 104.48 91.3645 104.48C91.3085 104.48 91.2105 104.438 91.0705 104.354C90.4405 103.948 89.8105 103.752 89.1805 103.752C88.4525 103.752 87.8505 103.976 87.3745 104.424C86.8565 104.914 86.5905 105.572 86.5905 106.398C86.5905 107.14 86.8425 107.728 87.3465 108.176C87.6125 108.414 88.1865 108.708 89.0405 109.128L89.2645 109.24C90.0905 109.646 90.6365 109.996 90.8885 110.318C91.1685 110.682 91.3225 111.102 91.3225 111.564C91.3225 112.194 91.1545 112.67 90.8185 113.034C90.4965 113.384 90.0625 113.552 89.5305 113.552C88.7045 113.552 88.0605 113.244 87.5565 112.6C87.1925 112.152 86.9685 111.522 86.8705 110.752C86.8565 110.64 86.8005 110.57 86.7165 110.57C86.5905 110.57 86.5065 110.654 86.5065 110.78V113.622C86.5065 113.748 86.5765 113.832 86.6605 113.832C86.7865 113.832 86.8705 113.748 86.8845 113.622C86.8985 113.342 86.9685 113.202 87.0945 113.202C87.1925 113.202 87.3325 113.286 87.5005 113.412C88.1305 113.888 88.8025 114.112 89.5305 114.112C90.1885 114.112 90.7485 113.93 91.2385 113.552C91.8965 113.048 92.2325 112.306 92.2325 111.354C92.2325 110.724 92.0645 110.178 91.7145 109.716C91.3505 109.24 90.5525 108.722 89.2925 108.19L88.9985 108.064C87.9625 107.616 87.4305 107 87.4305 106.16C87.4305 105.684 87.5845 105.264 87.8505 104.914C88.1865 104.48 88.6485 104.256 89.2225 104.256C89.9365 104.256 90.4965 104.536 90.9165 105.054C91.2525 105.488 91.4625 105.992 91.5465 106.622C91.5605 106.734 91.6305 106.804 91.7425 106.804ZM97.7675 108.596C99.0695 108.288 99.7135 107.462 99.7135 106.132C99.7135 105.474 99.5175 104.914 99.1395 104.466C98.6915 103.934 98.0475 103.654 97.2075 103.654C96.5775 103.654 96.0035 103.864 95.5135 104.27C94.9675 104.718 94.7015 105.236 94.7015 105.81C94.7015 106.412 94.9255 106.706 95.3595 106.706C95.7655 106.706 95.9475 106.468 95.9475 106.006C95.9475 105.586 95.7655 105.376 95.3875 105.376C95.4575 105.124 95.5975 104.9 95.8075 104.704C96.1715 104.368 96.6055 104.186 97.1235 104.186C97.6275 104.186 98.0475 104.382 98.3835 104.76C98.6775 105.11 98.8455 105.558 98.8455 106.118C98.8455 106.804 98.6495 107.364 98.2715 107.812C97.9075 108.232 97.4595 108.442 96.8995 108.442H96.5215C96.3955 108.442 96.3115 108.526 96.3115 108.652V108.792C96.3115 108.918 96.3955 109.002 96.5215 109.002H96.8995C97.5855 109.002 98.1035 109.24 98.4955 109.688C98.8595 110.108 99.0275 110.64 99.0275 111.27C99.0275 111.956 98.8315 112.502 98.4535 112.95C98.0615 113.426 97.5715 113.664 96.9555 113.664C96.3395 113.664 95.8495 113.468 95.5135 113.076C95.3175 112.866 95.2195 112.614 95.1915 112.362C95.2335 112.376 95.2895 112.376 95.3315 112.376C95.6815 112.376 95.8355 112.166 95.8355 111.732C95.8355 111.27 95.6395 111.032 95.2335 111.032C94.7575 111.032 94.5195 111.368 94.5195 112.026C94.5195 112.614 94.7575 113.118 95.2055 113.524C95.7095 114 96.3115 114.224 97.0395 114.224C97.9775 114.224 98.7195 113.902 99.2515 113.244C99.6995 112.712 99.9375 112.068 99.9375 111.298C99.9375 109.898 99.2235 109.03 97.7675 108.694V108.596Z" fill="black"/>
<rect x="133.5" y="89.5" width="31" height="39" fill="white" stroke="black"/>
<path d="M179.153 130.668C179.027 130.626 178.901 130.682 178.859 130.822C178.355 132.6 177.403 133.482 175.989 133.482C175.023 133.482 174.239 133.048 173.623 132.152C173.035 131.298 172.741 130.206 172.741 128.862C172.741 127.742 172.937 126.762 173.329 125.908C173.889 124.732 174.743 124.144 175.905 124.144C176.759 124.144 177.473 124.494 177.991 125.194C178.327 125.628 178.537 126.132 178.663 126.734C178.677 126.832 178.747 126.902 178.831 126.902C178.957 126.902 179.041 126.818 179.041 126.692V124.298C179.041 124.172 178.971 124.088 178.873 124.088C178.761 124.088 178.677 124.172 178.663 124.284C178.635 124.536 178.565 124.662 178.467 124.662C178.411 124.662 178.299 124.592 178.145 124.466C177.487 123.92 176.717 123.64 175.849 123.64C174.729 123.64 173.805 124.088 173.063 124.97C172.195 125.992 171.775 127.322 171.775 128.974C171.775 130.626 172.195 131.942 173.035 132.908C173.777 133.776 174.701 134.21 175.835 134.21C176.689 134.21 177.431 133.916 178.061 133.314C178.649 132.754 179.069 131.956 179.321 130.934C179.349 130.822 179.293 130.71 179.195 130.682L179.153 130.668Z" fill="black"/>
<path d="M147.736 106.804C147.848 106.804 147.918 106.72 147.918 106.594V104.13C147.918 104.004 147.848 103.92 147.736 103.92C147.624 103.92 147.54 104.004 147.526 104.13C147.512 104.368 147.442 104.48 147.358 104.48C147.302 104.48 147.204 104.438 147.064 104.354C146.434 103.948 145.804 103.752 145.174 103.752C144.446 103.752 143.844 103.976 143.368 104.424C142.85 104.914 142.584 105.572 142.584 106.398C142.584 107.14 142.836 107.728 143.34 108.176C143.606 108.414 144.18 108.708 145.034 109.128L145.258 109.24C146.084 109.646 146.63 109.996 146.882 110.318C147.162 110.682 147.316 111.102 147.316 111.564C147.316 112.194 147.148 112.67 146.812 113.034C146.49 113.384 146.056 113.552 145.524 113.552C144.698 113.552 144.054 113.244 143.55 112.6C143.186 112.152 142.962 111.522 142.864 110.752C142.85 110.64 142.794 110.57 142.71 110.57C142.584 110.57 142.5 110.654 142.5 110.78V113.622C142.5 113.748 142.57 113.832 142.654 113.832C142.78 113.832 142.864 113.748 142.878 113.622C142.892 113.342 142.962 113.202 143.088 113.202C143.186 113.202 143.326 113.286 143.494 113.412C144.124 113.888 144.796 114.112 145.524 114.112C146.182 114.112 146.742 113.93 147.232 113.552C147.89 113.048 148.226 112.306 148.226 111.354C148.226 110.724 148.058 110.178 147.708 109.716C147.344 109.24 146.546 108.722 145.286 108.19L144.992 108.064C143.956 107.616 143.424 107 143.424 106.16C143.424 105.684 143.578 105.264 143.844 104.914C144.18 104.48 144.642 104.256 145.216 104.256C145.93 104.256 146.49 104.536 146.91 105.054C147.246 105.488 147.456 105.992 147.54 106.622C147.554 106.734 147.624 106.804 147.736 106.804ZM156.519 110.738C156.519 110.612 156.435 110.528 156.309 110.528H154.965V104.046C154.965 103.92 154.881 103.836 154.755 103.836H154.629C154.573 103.836 154.517 103.864 154.475 103.92L150.149 110.416C150.135 110.444 150.121 110.472 150.121 110.514V110.92C150.121 111.046 150.205 111.13 150.331 111.13H154.223V112.376C154.223 112.866 154.083 113.174 153.831 113.3C153.705 113.37 153.467 113.426 153.117 113.454C153.005 113.468 152.921 113.538 152.921 113.65C152.921 113.776 153.005 113.86 153.131 113.86H155.931C156.057 113.86 156.141 113.776 156.141 113.65C156.141 113.538 156.057 113.468 155.945 113.454C155.581 113.412 155.315 113.342 155.189 113.23C155.049 113.118 154.965 112.824 154.965 112.376V111.13H156.309C156.435 111.13 156.519 111.046 156.519 110.92V110.738ZM154.223 105.264V110.528H150.723L154.223 105.264Z" fill="black"/>
</svg>
