<svg width="195" height="142" viewBox="0 0 195 142" fill="none" xmlns="http://www.w3.org/2000/svg">
<line y1="37.5" x2="75" y2="37.5" stroke="black"/>
<line x1="0.5" y1="37" x2="0.5" y2="1" stroke="black"/>
<line x1="59.5" y1="37" x2="59.5" y2="1" stroke="black"/>
<line y1="0.5" x2="60" y2="0.5" stroke="black"/>
<rect x="14.5" y="17.5" width="31" height="39" fill="white" stroke="black"/>
<path d="M28.7425 34.804C28.8545 34.804 28.9245 34.72 28.9245 34.594V32.13C28.9245 32.004 28.8545 31.92 28.7425 31.92C28.6305 31.92 28.5465 32.004 28.5325 32.13C28.5185 32.368 28.4485 32.48 28.3645 32.48C28.3085 32.48 28.2105 32.438 28.0705 32.354C27.4405 31.948 26.8105 31.752 26.1805 31.752C25.4525 31.752 24.8505 31.976 24.3745 32.424C23.8565 32.914 23.5905 33.572 23.5905 34.398C23.5905 35.14 23.8425 35.728 24.3465 36.176C24.6125 36.414 25.1865 36.708 26.0405 37.128L26.2645 37.24C27.0905 37.646 27.6365 37.996 27.8885 38.318C28.1685 38.682 28.3225 39.102 28.3225 39.564C28.3225 40.194 28.1545 40.67 27.8185 41.034C27.4965 41.384 27.0625 41.552 26.5305 41.552C25.7045 41.552 25.0605 41.244 24.5565 40.6C24.1925 40.152 23.9685 39.522 23.8705 38.752C23.8565 38.64 23.8005 38.57 23.7165 38.57C23.5905 38.57 23.5065 38.654 23.5065 38.78V41.622C23.5065 41.748 23.5765 41.832 23.6605 41.832C23.7865 41.832 23.8705 41.748 23.8845 41.622C23.8985 41.342 23.9685 41.202 24.0945 41.202C24.1925 41.202 24.3325 41.286 24.5005 41.412C25.1305 41.888 25.8025 42.112 26.5305 42.112C27.1885 42.112 27.7485 41.93 28.2385 41.552C28.8965 41.048 29.2325 40.306 29.2325 39.354C29.2325 38.724 29.0645 38.178 28.7145 37.716C28.3505 37.24 27.5525 36.722 26.2925 36.19L25.9985 36.064C24.9625 35.616 24.4305 35 24.4305 34.16C24.4305 33.684 24.5845 33.264 24.8505 32.914C25.1865 32.48 25.6485 32.256 26.2225 32.256C26.9365 32.256 27.4965 32.536 27.9165 33.054C28.2525 33.488 28.4625 33.992 28.5465 34.622C28.5605 34.734 28.6305 34.804 28.7425 34.804ZM36.3775 41.636C36.3775 41.51 36.2795 41.426 36.1535 41.426C35.6355 41.412 35.3135 41.356 35.1595 41.258C34.9215 41.104 34.7955 40.824 34.7955 40.39V32.13C34.7955 31.878 34.5715 31.766 34.3615 31.892C33.8855 32.158 33.2135 32.354 32.3455 32.466C32.2335 32.48 32.1635 32.564 32.1635 32.676C32.1635 32.802 32.2475 32.886 32.3735 32.886H33.3535C33.7595 32.886 33.9695 33.138 33.9695 33.628V40.39C33.9695 40.852 33.8295 41.146 33.5635 41.286C33.4095 41.37 33.0735 41.412 32.5555 41.426C32.4295 41.426 32.3315 41.51 32.3315 41.636V41.65C32.3315 41.776 32.4155 41.86 32.5415 41.86H36.1675C36.2935 41.86 36.3775 41.776 36.3775 41.65V41.636Z" fill="black"/>
<path d="M59.6151 61.664C59.6151 61.552 59.5311 61.468 59.4191 61.454C59.0831 61.426 58.8451 61.37 58.7051 61.272C58.5091 61.146 58.3971 60.838 58.3971 60.348V53.516C58.3971 53.012 58.5231 52.704 58.7611 52.578C58.9151 52.494 59.1391 52.438 59.4191 52.396C59.5311 52.382 59.6151 52.312 59.6151 52.2C59.6151 52.074 59.5311 51.99 59.4051 51.99H57.3611C57.2771 51.99 57.2071 52.046 57.1791 52.13L54.5051 60.348L51.8171 52.13C51.7891 52.046 51.7191 51.99 51.6351 51.99H49.4931C49.3671 51.99 49.2831 52.074 49.2831 52.2C49.2831 52.312 49.3671 52.382 49.4791 52.396C49.8571 52.438 50.0811 52.508 50.2071 52.578C50.4171 52.704 50.5151 53.026 50.5151 53.53V60.362C50.5151 60.866 50.4031 61.188 50.1791 61.3C50.0251 61.384 49.8151 61.426 49.5211 61.454C49.4091 61.468 49.3251 61.538 49.3251 61.65C49.3251 61.776 49.4091 61.86 49.5351 61.86H52.0551C52.1811 61.86 52.2651 61.776 52.2651 61.664C52.2651 61.552 52.1811 61.468 52.0691 61.454C51.7751 61.412 51.5651 61.37 51.4111 61.272C51.2151 61.146 51.1031 60.838 51.1031 60.362V52.69H51.1591L54.0991 61.72C54.1271 61.804 54.1971 61.86 54.2811 61.86H54.4211C54.5051 61.86 54.5751 61.804 54.6031 61.72L57.5571 52.676H57.5851V60.348C57.5851 60.866 57.4871 61.188 57.2491 61.3C57.1231 61.37 56.8991 61.426 56.5911 61.454C56.4791 61.468 56.3951 61.538 56.3951 61.65C56.3951 61.776 56.4791 61.86 56.6051 61.86H59.4051C59.5311 61.86 59.6151 61.776 59.6151 61.664Z" fill="black"/>
<line x1="74.5" y1="38" x2="74.5" y2="113" stroke="black"/>
<line x1="46" y1="112.5" x2="74" y2="112.5" stroke="black"/>
<line x1="73.9911" y1="74.5" x2="187.009" y2="74.5" stroke="black"/>
<rect x="145.5" y="55.5" width="31" height="39" fill="white" stroke="black"/>
<path d="M191.153 96.668C191.027 96.626 190.901 96.682 190.859 96.822C190.355 98.6 189.403 99.482 187.989 99.482C187.023 99.482 186.239 99.048 185.623 98.152C185.035 97.298 184.741 96.206 184.741 94.862C184.741 93.742 184.937 92.762 185.329 91.908C185.889 90.732 186.743 90.144 187.905 90.144C188.759 90.144 189.473 90.494 189.991 91.194C190.327 91.628 190.537 92.132 190.663 92.734C190.677 92.832 190.747 92.902 190.831 92.902C190.957 92.902 191.041 92.818 191.041 92.692V90.298C191.041 90.172 190.971 90.088 190.873 90.088C190.761 90.088 190.677 90.172 190.663 90.284C190.635 90.536 190.565 90.662 190.467 90.662C190.411 90.662 190.299 90.592 190.145 90.466C189.487 89.92 188.717 89.64 187.849 89.64C186.729 89.64 185.805 90.088 185.063 90.97C184.195 91.992 183.775 93.322 183.775 94.974C183.775 96.626 184.195 97.942 185.035 98.908C185.777 99.776 186.701 100.21 187.835 100.21C188.689 100.21 189.431 99.916 190.061 99.314C190.649 98.754 191.069 97.956 191.321 96.934C191.349 96.822 191.293 96.71 191.195 96.682L191.153 96.668Z" fill="black"/>
<path d="M159.736 72.804C159.848 72.804 159.918 72.72 159.918 72.594V70.13C159.918 70.004 159.848 69.92 159.736 69.92C159.624 69.92 159.54 70.004 159.526 70.13C159.512 70.368 159.442 70.48 159.358 70.48C159.302 70.48 159.204 70.438 159.064 70.354C158.434 69.948 157.804 69.752 157.174 69.752C156.446 69.752 155.844 69.976 155.368 70.424C154.85 70.914 154.584 71.572 154.584 72.398C154.584 73.14 154.836 73.728 155.34 74.176C155.606 74.414 156.18 74.708 157.034 75.128L157.258 75.24C158.084 75.646 158.63 75.996 158.882 76.318C159.162 76.682 159.316 77.102 159.316 77.564C159.316 78.194 159.148 78.67 158.812 79.034C158.49 79.384 158.056 79.552 157.524 79.552C156.698 79.552 156.054 79.244 155.55 78.6C155.186 78.152 154.962 77.522 154.864 76.752C154.85 76.64 154.794 76.57 154.71 76.57C154.584 76.57 154.5 76.654 154.5 76.78V79.622C154.5 79.748 154.57 79.832 154.654 79.832C154.78 79.832 154.864 79.748 154.878 79.622C154.892 79.342 154.962 79.202 155.088 79.202C155.186 79.202 155.326 79.286 155.494 79.412C156.124 79.888 156.796 80.112 157.524 80.112C158.182 80.112 158.742 79.93 159.232 79.552C159.89 79.048 160.226 78.306 160.226 77.354C160.226 76.724 160.058 76.178 159.708 75.716C159.344 75.24 158.546 74.722 157.286 74.19L156.992 74.064C155.956 73.616 155.424 73 155.424 72.16C155.424 71.684 155.578 71.264 155.844 70.914C156.18 70.48 156.642 70.256 157.216 70.256C157.93 70.256 158.49 70.536 158.91 71.054C159.246 71.488 159.456 71.992 159.54 72.622C159.554 72.734 159.624 72.804 159.736 72.804ZM168.519 76.738C168.519 76.612 168.435 76.528 168.309 76.528H166.965V70.046C166.965 69.92 166.881 69.836 166.755 69.836H166.629C166.573 69.836 166.517 69.864 166.475 69.92L162.149 76.416C162.135 76.444 162.121 76.472 162.121 76.514V76.92C162.121 77.046 162.205 77.13 162.331 77.13H166.223V78.376C166.223 78.866 166.083 79.174 165.831 79.3C165.705 79.37 165.467 79.426 165.117 79.454C165.005 79.468 164.921 79.538 164.921 79.65C164.921 79.776 165.005 79.86 165.131 79.86H167.931C168.057 79.86 168.141 79.776 168.141 79.65C168.141 79.538 168.057 79.468 167.945 79.454C167.581 79.412 167.315 79.342 167.189 79.23C167.049 79.118 166.965 78.824 166.965 78.376V77.13H168.309C168.435 77.13 168.519 77.046 168.519 76.92V76.738ZM166.223 71.264V76.528H162.723L166.223 71.264Z" fill="black"/>
<rect x="87.5" y="55.5" width="31" height="39" fill="white" stroke="black"/>
<path d="M132.615 99.664C132.615 99.552 132.531 99.468 132.419 99.454C132.083 99.426 131.845 99.37 131.705 99.272C131.509 99.146 131.397 98.838 131.397 98.348V91.516C131.397 91.012 131.523 90.704 131.761 90.578C131.915 90.494 132.139 90.438 132.419 90.396C132.531 90.382 132.615 90.312 132.615 90.2C132.615 90.074 132.531 89.99 132.405 89.99H130.361C130.277 89.99 130.207 90.046 130.179 90.13L127.505 98.348L124.817 90.13C124.789 90.046 124.719 89.99 124.635 89.99H122.493C122.367 89.99 122.283 90.074 122.283 90.2C122.283 90.312 122.367 90.382 122.479 90.396C122.857 90.438 123.081 90.508 123.207 90.578C123.417 90.704 123.515 91.026 123.515 91.53V98.362C123.515 98.866 123.403 99.188 123.179 99.3C123.025 99.384 122.815 99.426 122.521 99.454C122.409 99.468 122.325 99.538 122.325 99.65C122.325 99.776 122.409 99.86 122.535 99.86H125.055C125.181 99.86 125.265 99.776 125.265 99.664C125.265 99.552 125.181 99.468 125.069 99.454C124.775 99.412 124.565 99.37 124.411 99.272C124.215 99.146 124.103 98.838 124.103 98.362V90.69H124.159L127.099 99.72C127.127 99.804 127.197 99.86 127.281 99.86H127.421C127.505 99.86 127.575 99.804 127.603 99.72L130.557 90.676H130.585V98.348C130.585 98.866 130.487 99.188 130.249 99.3C130.123 99.37 129.899 99.426 129.591 99.454C129.479 99.468 129.395 99.538 129.395 99.65C129.395 99.776 129.479 99.86 129.605 99.86H132.405C132.531 99.86 132.615 99.776 132.615 99.664Z" fill="black"/>
<path d="M101.742 72.804C101.854 72.804 101.924 72.72 101.924 72.594V70.13C101.924 70.004 101.854 69.92 101.742 69.92C101.63 69.92 101.546 70.004 101.532 70.13C101.518 70.368 101.448 70.48 101.364 70.48C101.308 70.48 101.21 70.438 101.07 70.354C100.44 69.948 99.8105 69.752 99.1805 69.752C98.4525 69.752 97.8505 69.976 97.3745 70.424C96.8565 70.914 96.5905 71.572 96.5905 72.398C96.5905 73.14 96.8425 73.728 97.3465 74.176C97.6125 74.414 98.1865 74.708 99.0405 75.128L99.2645 75.24C100.09 75.646 100.636 75.996 100.888 76.318C101.168 76.682 101.322 77.102 101.322 77.564C101.322 78.194 101.154 78.67 100.818 79.034C100.496 79.384 100.062 79.552 99.5305 79.552C98.7045 79.552 98.0605 79.244 97.5565 78.6C97.1925 78.152 96.9685 77.522 96.8705 76.752C96.8565 76.64 96.8005 76.57 96.7165 76.57C96.5905 76.57 96.5065 76.654 96.5065 76.78V79.622C96.5065 79.748 96.5765 79.832 96.6605 79.832C96.7865 79.832 96.8705 79.748 96.8845 79.622C96.8985 79.342 96.9685 79.202 97.0945 79.202C97.1925 79.202 97.3325 79.286 97.5005 79.412C98.1305 79.888 98.8025 80.112 99.5305 80.112C100.188 80.112 100.748 79.93 101.238 79.552C101.896 79.048 102.232 78.306 102.232 77.354C102.232 76.724 102.064 76.178 101.714 75.716C101.35 75.24 100.552 74.722 99.2925 74.19L98.9985 74.064C97.9625 73.616 97.4305 73 97.4305 72.16C97.4305 71.684 97.5845 71.264 97.8505 70.914C98.1865 70.48 98.6485 70.256 99.2225 70.256C99.9365 70.256 100.496 70.536 100.916 71.054C101.252 71.488 101.462 71.992 101.546 72.622C101.56 72.734 101.63 72.804 101.742 72.804ZM107.767 74.596C109.069 74.288 109.713 73.462 109.713 72.132C109.713 71.474 109.517 70.914 109.139 70.466C108.691 69.934 108.047 69.654 107.207 69.654C106.577 69.654 106.003 69.864 105.513 70.27C104.967 70.718 104.701 71.236 104.701 71.81C104.701 72.412 104.925 72.706 105.359 72.706C105.765 72.706 105.947 72.468 105.947 72.006C105.947 71.586 105.765 71.376 105.387 71.376C105.457 71.124 105.597 70.9 105.807 70.704C106.171 70.368 106.605 70.186 107.123 70.186C107.627 70.186 108.047 70.382 108.383 70.76C108.677 71.11 108.845 71.558 108.845 72.118C108.845 72.804 108.649 73.364 108.271 73.812C107.907 74.232 107.459 74.442 106.899 74.442H106.521C106.395 74.442 106.311 74.526 106.311 74.652V74.792C106.311 74.918 106.395 75.002 106.521 75.002H106.899C107.585 75.002 108.103 75.24 108.495 75.688C108.859 76.108 109.027 76.64 109.027 77.27C109.027 77.956 108.831 78.502 108.453 78.95C108.061 79.426 107.571 79.664 106.955 79.664C106.339 79.664 105.849 79.468 105.513 79.076C105.317 78.866 105.219 78.614 105.191 78.362C105.233 78.376 105.289 78.376 105.331 78.376C105.681 78.376 105.835 78.166 105.835 77.732C105.835 77.27 105.639 77.032 105.233 77.032C104.757 77.032 104.519 77.368 104.519 78.026C104.519 78.614 104.757 79.118 105.205 79.524C105.709 80 106.311 80.224 107.039 80.224C107.977 80.224 108.719 79.902 109.251 79.244C109.699 78.712 109.937 78.068 109.937 77.298C109.937 75.898 109.223 75.03 107.767 74.694V74.596Z" fill="black"/>
<rect x="15.5" y="93.5" width="31" height="39" fill="white" stroke="black"/>
<path d="M60.6151 137.664C60.6151 137.552 60.5311 137.468 60.4191 137.454C60.0831 137.426 59.8451 137.37 59.7051 137.272C59.5091 137.146 59.3971 136.838 59.3971 136.348V129.516C59.3971 129.012 59.5231 128.704 59.7611 128.578C59.9151 128.494 60.1391 128.438 60.4191 128.396C60.5311 128.382 60.6151 128.312 60.6151 128.2C60.6151 128.074 60.5311 127.99 60.4051 127.99H58.3611C58.2771 127.99 58.2071 128.046 58.1791 128.13L55.5051 136.348L52.8171 128.13C52.7891 128.046 52.7191 127.99 52.6351 127.99H50.4931C50.3671 127.99 50.2831 128.074 50.2831 128.2C50.2831 128.312 50.3671 128.382 50.4791 128.396C50.8571 128.438 51.0811 128.508 51.2071 128.578C51.4171 128.704 51.5151 129.026 51.5151 129.53V136.362C51.5151 136.866 51.4031 137.188 51.1791 137.3C51.0251 137.384 50.8151 137.426 50.5211 137.454C50.4091 137.468 50.3251 137.538 50.3251 137.65C50.3251 137.776 50.4091 137.86 50.5351 137.86H53.0551C53.1811 137.86 53.2651 137.776 53.2651 137.664C53.2651 137.552 53.1811 137.468 53.0691 137.454C52.7751 137.412 52.5651 137.37 52.4111 137.272C52.2151 137.146 52.1031 136.838 52.1031 136.362V128.69H52.1591L55.0991 137.72C55.1271 137.804 55.1971 137.86 55.2811 137.86H55.4211C55.5051 137.86 55.5751 137.804 55.6031 137.72L58.5571 128.676H58.5851V136.348C58.5851 136.866 58.4871 137.188 58.2491 137.3C58.1231 137.37 57.8991 137.426 57.5911 137.454C57.4791 137.468 57.3951 137.538 57.3951 137.65C57.3951 137.776 57.4791 137.86 57.6051 137.86H60.4051C60.5311 137.86 60.6151 137.776 60.6151 137.664Z" fill="black"/>
<path d="M29.7288 110.804C29.8408 110.804 29.9108 110.72 29.9108 110.594V108.13C29.9108 108.004 29.8408 107.92 29.7288 107.92C29.6168 107.92 29.5328 108.004 29.5188 108.13C29.5048 108.368 29.4348 108.48 29.3508 108.48C29.2948 108.48 29.1968 108.438 29.0568 108.354C28.4268 107.948 27.7968 107.752 27.1668 107.752C26.4388 107.752 25.8368 107.976 25.3608 108.424C24.8428 108.914 24.5768 109.572 24.5768 110.398C24.5768 111.14 24.8288 111.728 25.3328 112.176C25.5988 112.414 26.1728 112.708 27.0268 113.128L27.2508 113.24C28.0768 113.646 28.6228 113.996 28.8748 114.318C29.1548 114.682 29.3088 115.102 29.3088 115.564C29.3088 116.194 29.1408 116.67 28.8048 117.034C28.4828 117.384 28.0488 117.552 27.5168 117.552C26.6908 117.552 26.0468 117.244 25.5428 116.6C25.1788 116.152 24.9548 115.522 24.8568 114.752C24.8428 114.64 24.7868 114.57 24.7028 114.57C24.5768 114.57 24.4928 114.654 24.4928 114.78V117.622C24.4928 117.748 24.5628 117.832 24.6468 117.832C24.7728 117.832 24.8568 117.748 24.8708 117.622C24.8848 117.342 24.9548 117.202 25.0808 117.202C25.1788 117.202 25.3188 117.286 25.4868 117.412C26.1168 117.888 26.7888 118.112 27.5168 118.112C28.1748 118.112 28.7348 117.93 29.2248 117.552C29.8828 117.048 30.2188 116.306 30.2188 115.354C30.2188 114.724 30.0508 114.178 29.7008 113.716C29.3368 113.24 28.5388 112.722 27.2788 112.19L26.9848 112.064C25.9488 111.616 25.4168 111 25.4168 110.16C25.4168 109.684 25.5708 109.264 25.8368 108.914C26.1728 108.48 26.6348 108.256 27.2088 108.256C27.9228 108.256 28.4828 108.536 28.9028 109.054C29.2388 109.488 29.4488 109.992 29.5328 110.622C29.5468 110.734 29.6168 110.804 29.7288 110.804ZM37.9658 114.99C37.8678 114.99 37.7838 115.06 37.7698 115.172C37.6438 115.928 37.5038 116.404 37.3778 116.614C37.2238 116.88 36.9018 117.006 36.4118 117.006H33.2618C33.4858 115.83 34.2418 114.738 35.5298 113.772L35.8658 113.52C36.6638 112.918 37.1958 112.386 37.4758 111.924C37.7698 111.434 37.9098 110.902 37.9098 110.314C37.9098 109.46 37.6298 108.788 37.0838 108.284C36.6078 107.85 36.0198 107.64 35.3198 107.64C34.5638 107.64 33.9758 107.92 33.5138 108.452C33.0658 108.97 32.8418 109.544 32.8418 110.188C32.8418 110.804 33.0798 111.126 33.5418 111.126C33.9198 111.126 34.1158 110.902 34.1158 110.44C34.1158 110.02 33.9198 109.796 33.5418 109.782C33.5558 109.488 33.6398 109.208 33.8078 108.928C34.1158 108.41 34.6058 108.158 35.2778 108.158C35.6978 108.158 36.0618 108.298 36.3698 108.564C36.7758 108.942 36.9858 109.502 36.9858 110.244C36.9858 110.79 36.8318 111.294 36.5378 111.784C36.3138 112.134 35.8798 112.596 35.2358 113.184L35.0398 113.366C33.6818 114.626 32.8838 115.956 32.6318 117.286C32.6318 117.286 32.6318 117.3 32.6318 117.314V117.65C32.6318 117.776 32.7158 117.86 32.8418 117.86H37.6578C37.7698 117.86 37.8678 117.79 37.8678 117.678L38.1058 115.228C38.1198 115.102 38.0638 114.99 37.9658 114.99Z" fill="black"/>
</svg>
