<svg width="244" height="108" viewBox="0 0 244 108" fill="none" xmlns="http://www.w3.org/2000/svg">
<line x1="34.5" y1="1" x2="34.5" y2="74" stroke="black"/>
<rect x="18.5" y="18.5" width="31" height="39" fill="white" stroke="black"/>
<path d="M32.7425 35.804C32.8545 35.804 32.9245 35.72 32.9245 35.594V33.13C32.9245 33.004 32.8545 32.92 32.7425 32.92C32.6305 32.92 32.5465 33.004 32.5325 33.13C32.5185 33.368 32.4485 33.48 32.3645 33.48C32.3085 33.48 32.2105 33.438 32.0705 33.354C31.4405 32.948 30.8105 32.752 30.1805 32.752C29.4525 32.752 28.8505 32.976 28.3745 33.424C27.8565 33.914 27.5905 34.572 27.5905 35.398C27.5905 36.14 27.8425 36.728 28.3465 37.176C28.6125 37.414 29.1865 37.708 30.0405 38.128L30.2645 38.24C31.0905 38.646 31.6365 38.996 31.8885 39.318C32.1685 39.682 32.3225 40.102 32.3225 40.564C32.3225 41.194 32.1545 41.67 31.8185 42.034C31.4965 42.384 31.0625 42.552 30.5305 42.552C29.7045 42.552 29.0605 42.244 28.5565 41.6C28.1925 41.152 27.9685 40.522 27.8705 39.752C27.8565 39.64 27.8005 39.57 27.7165 39.57C27.5905 39.57 27.5065 39.654 27.5065 39.78V42.622C27.5065 42.748 27.5765 42.832 27.6605 42.832C27.7865 42.832 27.8705 42.748 27.8845 42.622C27.8985 42.342 27.9685 42.202 28.0945 42.202C28.1925 42.202 28.3325 42.286 28.5005 42.412C29.1305 42.888 29.8025 43.112 30.5305 43.112C31.1885 43.112 31.7485 42.93 32.2385 42.552C32.8965 42.048 33.2325 41.306 33.2325 40.354C33.2325 39.724 33.0645 39.178 32.7145 38.716C32.3505 38.24 31.5525 37.722 30.2925 37.19L29.9985 37.064C28.9625 36.616 28.4305 36 28.4305 35.16C28.4305 34.684 28.5845 34.264 28.8505 33.914C29.1865 33.48 29.6485 33.256 30.2225 33.256C30.9365 33.256 31.4965 33.536 31.9165 34.054C32.2525 34.488 32.4625 34.992 32.5465 35.622C32.5605 35.734 32.6305 35.804 32.7425 35.804ZM40.3775 42.636C40.3775 42.51 40.2795 42.426 40.1535 42.426C39.6355 42.412 39.3135 42.356 39.1595 42.258C38.9215 42.104 38.7955 41.824 38.7955 41.39V33.13C38.7955 32.878 38.5715 32.766 38.3615 32.892C37.8855 33.158 37.2135 33.354 36.3455 33.466C36.2335 33.48 36.1635 33.564 36.1635 33.676C36.1635 33.802 36.2475 33.886 36.3735 33.886H37.3535C37.7595 33.886 37.9695 34.138 37.9695 34.628V41.39C37.9695 41.852 37.8295 42.146 37.5635 42.286C37.4095 42.37 37.0735 42.412 36.5555 42.426C36.4295 42.426 36.3315 42.51 36.3315 42.636V42.65C36.3315 42.776 36.4155 42.86 36.5415 42.86H40.1675C40.2935 42.86 40.3775 42.776 40.3775 42.65V42.636Z" fill="black"/>
<path d="M12.1527 59.668C12.0267 59.626 11.9007 59.682 11.8587 59.822C11.3547 61.6 10.4027 62.482 8.9887 62.482C8.0227 62.482 7.2387 62.048 6.6227 61.152C6.0347 60.298 5.7407 59.206 5.7407 57.862C5.7407 56.742 5.9367 55.762 6.3287 54.908C6.8887 53.732 7.7427 53.144 8.9047 53.144C9.7587 53.144 10.4727 53.494 10.9907 54.194C11.3267 54.628 11.5367 55.132 11.6627 55.734C11.6767 55.832 11.7467 55.902 11.8307 55.902C11.9567 55.902 12.0407 55.818 12.0407 55.692V53.298C12.0407 53.172 11.9707 53.088 11.8727 53.088C11.7607 53.088 11.6767 53.172 11.6627 53.284C11.6347 53.536 11.5647 53.662 11.4667 53.662C11.4107 53.662 11.2987 53.592 11.1447 53.466C10.4867 52.92 9.7167 52.64 8.8487 52.64C7.7287 52.64 6.8047 53.088 6.0627 53.97C5.1947 54.992 4.7747 56.322 4.7747 57.974C4.7747 59.626 5.1947 60.942 6.0347 61.908C6.7767 62.776 7.7007 63.21 8.8347 63.21C9.6887 63.21 10.4307 62.916 11.0607 62.314C11.6487 61.754 12.0687 60.956 12.3207 59.934C12.3487 59.822 12.2927 59.71 12.1947 59.682L12.1527 59.668Z" fill="black"/>
<rect x="76.5" y="18.5" width="31" height="39" fill="white" stroke="black"/>
<path d="M122.153 59.668C122.027 59.626 121.901 59.682 121.859 59.822C121.355 61.6 120.403 62.482 118.989 62.482C118.023 62.482 117.239 62.048 116.623 61.152C116.035 60.298 115.741 59.206 115.741 57.862C115.741 56.742 115.937 55.762 116.329 54.908C116.889 53.732 117.743 53.144 118.905 53.144C119.759 53.144 120.473 53.494 120.991 54.194C121.327 54.628 121.537 55.132 121.663 55.734C121.677 55.832 121.747 55.902 121.831 55.902C121.957 55.902 122.041 55.818 122.041 55.692V53.298C122.041 53.172 121.971 53.088 121.873 53.088C121.761 53.088 121.677 53.172 121.663 53.284C121.635 53.536 121.565 53.662 121.467 53.662C121.411 53.662 121.299 53.592 121.145 53.466C120.487 52.92 119.717 52.64 118.849 52.64C117.729 52.64 116.805 53.088 116.063 53.97C115.195 54.992 114.775 56.322 114.775 57.974C114.775 59.626 115.195 60.942 116.035 61.908C116.777 62.776 117.701 63.21 118.835 63.21C119.689 63.21 120.431 62.916 121.061 62.314C121.649 61.754 122.069 60.956 122.321 59.934C122.349 59.822 122.293 59.71 122.195 59.682L122.153 59.668Z" fill="black"/>
<path d="M90.7288 35.804C90.8408 35.804 90.9108 35.72 90.9108 35.594V33.13C90.9108 33.004 90.8408 32.92 90.7288 32.92C90.6168 32.92 90.5328 33.004 90.5188 33.13C90.5048 33.368 90.4348 33.48 90.3508 33.48C90.2948 33.48 90.1968 33.438 90.0568 33.354C89.4268 32.948 88.7968 32.752 88.1668 32.752C87.4388 32.752 86.8368 32.976 86.3608 33.424C85.8428 33.914 85.5768 34.572 85.5768 35.398C85.5768 36.14 85.8288 36.728 86.3328 37.176C86.5988 37.414 87.1728 37.708 88.0268 38.128L88.2508 38.24C89.0768 38.646 89.6228 38.996 89.8748 39.318C90.1548 39.682 90.3088 40.102 90.3088 40.564C90.3088 41.194 90.1408 41.67 89.8048 42.034C89.4828 42.384 89.0488 42.552 88.5168 42.552C87.6908 42.552 87.0468 42.244 86.5428 41.6C86.1788 41.152 85.9548 40.522 85.8568 39.752C85.8428 39.64 85.7868 39.57 85.7028 39.57C85.5768 39.57 85.4928 39.654 85.4928 39.78V42.622C85.4928 42.748 85.5628 42.832 85.6468 42.832C85.7728 42.832 85.8568 42.748 85.8708 42.622C85.8848 42.342 85.9548 42.202 86.0808 42.202C86.1788 42.202 86.3188 42.286 86.4868 42.412C87.1168 42.888 87.7888 43.112 88.5168 43.112C89.1748 43.112 89.7348 42.93 90.2248 42.552C90.8828 42.048 91.2188 41.306 91.2188 40.354C91.2188 39.724 91.0508 39.178 90.7008 38.716C90.3368 38.24 89.5388 37.722 88.2788 37.19L87.9848 37.064C86.9488 36.616 86.4168 36 86.4168 35.16C86.4168 34.684 86.5708 34.264 86.8368 33.914C87.1728 33.48 87.6348 33.256 88.2088 33.256C88.9228 33.256 89.4828 33.536 89.9028 34.054C90.2388 34.488 90.4488 34.992 90.5328 35.622C90.5468 35.734 90.6168 35.804 90.7288 35.804ZM98.9658 39.99C98.8678 39.99 98.7838 40.06 98.7698 40.172C98.6438 40.928 98.5038 41.404 98.3778 41.614C98.2238 41.88 97.9018 42.006 97.4118 42.006H94.2618C94.4858 40.83 95.2418 39.738 96.5298 38.772L96.8658 38.52C97.6638 37.918 98.1958 37.386 98.4758 36.924C98.7698 36.434 98.9098 35.902 98.9098 35.314C98.9098 34.46 98.6298 33.788 98.0838 33.284C97.6078 32.85 97.0198 32.64 96.3198 32.64C95.5638 32.64 94.9758 32.92 94.5138 33.452C94.0658 33.97 93.8418 34.544 93.8418 35.188C93.8418 35.804 94.0798 36.126 94.5418 36.126C94.9198 36.126 95.1158 35.902 95.1158 35.44C95.1158 35.02 94.9198 34.796 94.5418 34.782C94.5558 34.488 94.6398 34.208 94.8078 33.928C95.1158 33.41 95.6058 33.158 96.2778 33.158C96.6978 33.158 97.0618 33.298 97.3698 33.564C97.7758 33.942 97.9858 34.502 97.9858 35.244C97.9858 35.79 97.8318 36.294 97.5378 36.784C97.3138 37.134 96.8798 37.596 96.2358 38.184L96.0398 38.366C94.6818 39.626 93.8838 40.956 93.6318 42.286C93.6318 42.286 93.6318 42.3 93.6318 42.314V42.65C93.6318 42.776 93.7158 42.86 93.8418 42.86H98.6578C98.7698 42.86 98.8678 42.79 98.8678 42.678L99.1058 40.228C99.1198 40.102 99.0638 39.99 98.9658 39.99Z" fill="black"/>
<rect x="133.5" y="18.5" width="31" height="39" fill="white" stroke="black"/>
<path d="M179.153 59.668C179.027 59.626 178.901 59.682 178.859 59.822C178.355 61.6 177.403 62.482 175.989 62.482C175.023 62.482 174.239 62.048 173.623 61.152C173.035 60.298 172.741 59.206 172.741 57.862C172.741 56.742 172.937 55.762 173.329 54.908C173.889 53.732 174.743 53.144 175.905 53.144C176.759 53.144 177.473 53.494 177.991 54.194C178.327 54.628 178.537 55.132 178.663 55.734C178.677 55.832 178.747 55.902 178.831 55.902C178.957 55.902 179.041 55.818 179.041 55.692V53.298C179.041 53.172 178.971 53.088 178.873 53.088C178.761 53.088 178.677 53.172 178.663 53.284C178.635 53.536 178.565 53.662 178.467 53.662C178.411 53.662 178.299 53.592 178.145 53.466C177.487 52.92 176.717 52.64 175.849 52.64C174.729 52.64 173.805 53.088 173.063 53.97C172.195 54.992 171.775 56.322 171.775 57.974C171.775 59.626 172.195 60.942 173.035 61.908C173.777 62.776 174.701 63.21 175.835 63.21C176.689 63.21 177.431 62.916 178.061 62.314C178.649 61.754 179.069 60.956 179.321 59.934C179.349 59.822 179.293 59.71 179.195 59.682L179.153 59.668Z" fill="black"/>
<path d="M147.742 35.804C147.854 35.804 147.924 35.72 147.924 35.594V33.13C147.924 33.004 147.854 32.92 147.742 32.92C147.63 32.92 147.546 33.004 147.532 33.13C147.518 33.368 147.448 33.48 147.364 33.48C147.308 33.48 147.21 33.438 147.07 33.354C146.44 32.948 145.81 32.752 145.18 32.752C144.452 32.752 143.85 32.976 143.374 33.424C142.856 33.914 142.59 34.572 142.59 35.398C142.59 36.14 142.842 36.728 143.346 37.176C143.612 37.414 144.186 37.708 145.04 38.128L145.264 38.24C146.09 38.646 146.636 38.996 146.888 39.318C147.168 39.682 147.322 40.102 147.322 40.564C147.322 41.194 147.154 41.67 146.818 42.034C146.496 42.384 146.062 42.552 145.53 42.552C144.704 42.552 144.06 42.244 143.556 41.6C143.192 41.152 142.968 40.522 142.87 39.752C142.856 39.64 142.8 39.57 142.716 39.57C142.59 39.57 142.506 39.654 142.506 39.78V42.622C142.506 42.748 142.576 42.832 142.66 42.832C142.786 42.832 142.87 42.748 142.884 42.622C142.898 42.342 142.968 42.202 143.094 42.202C143.192 42.202 143.332 42.286 143.5 42.412C144.13 42.888 144.802 43.112 145.53 43.112C146.188 43.112 146.748 42.93 147.238 42.552C147.896 42.048 148.232 41.306 148.232 40.354C148.232 39.724 148.064 39.178 147.714 38.716C147.35 38.24 146.552 37.722 145.292 37.19L144.998 37.064C143.962 36.616 143.43 36 143.43 35.16C143.43 34.684 143.584 34.264 143.85 33.914C144.186 33.48 144.648 33.256 145.222 33.256C145.936 33.256 146.496 33.536 146.916 34.054C147.252 34.488 147.462 34.992 147.546 35.622C147.56 35.734 147.63 35.804 147.742 35.804ZM153.767 37.596C155.069 37.288 155.713 36.462 155.713 35.132C155.713 34.474 155.517 33.914 155.139 33.466C154.691 32.934 154.047 32.654 153.207 32.654C152.577 32.654 152.003 32.864 151.513 33.27C150.967 33.718 150.701 34.236 150.701 34.81C150.701 35.412 150.925 35.706 151.359 35.706C151.765 35.706 151.947 35.468 151.947 35.006C151.947 34.586 151.765 34.376 151.387 34.376C151.457 34.124 151.597 33.9 151.807 33.704C152.171 33.368 152.605 33.186 153.123 33.186C153.627 33.186 154.047 33.382 154.383 33.76C154.677 34.11 154.845 34.558 154.845 35.118C154.845 35.804 154.649 36.364 154.271 36.812C153.907 37.232 153.459 37.442 152.899 37.442H152.521C152.395 37.442 152.311 37.526 152.311 37.652V37.792C152.311 37.918 152.395 38.002 152.521 38.002H152.899C153.585 38.002 154.103 38.24 154.495 38.688C154.859 39.108 155.027 39.64 155.027 40.27C155.027 40.956 154.831 41.502 154.453 41.95C154.061 42.426 153.571 42.664 152.955 42.664C152.339 42.664 151.849 42.468 151.513 42.076C151.317 41.866 151.219 41.614 151.191 41.362C151.233 41.376 151.289 41.376 151.331 41.376C151.681 41.376 151.835 41.166 151.835 40.732C151.835 40.27 151.639 40.032 151.233 40.032C150.757 40.032 150.519 40.368 150.519 41.026C150.519 41.614 150.757 42.118 151.205 42.524C151.709 43 152.311 43.224 153.039 43.224C153.977 43.224 154.719 42.902 155.251 42.244C155.699 41.712 155.937 41.068 155.937 40.298C155.937 38.898 155.223 38.03 153.767 37.694V37.596Z" fill="black"/>
<rect x="194.5" y="18.5" width="31" height="39" fill="white" stroke="black"/>
<path d="M240.153 59.668C240.027 59.626 239.901 59.682 239.859 59.822C239.355 61.6 238.403 62.482 236.989 62.482C236.023 62.482 235.239 62.048 234.623 61.152C234.035 60.298 233.741 59.206 233.741 57.862C233.741 56.742 233.937 55.762 234.329 54.908C234.889 53.732 235.743 53.144 236.905 53.144C237.759 53.144 238.473 53.494 238.991 54.194C239.327 54.628 239.537 55.132 239.663 55.734C239.677 55.832 239.747 55.902 239.831 55.902C239.957 55.902 240.041 55.818 240.041 55.692V53.298C240.041 53.172 239.971 53.088 239.873 53.088C239.761 53.088 239.677 53.172 239.663 53.284C239.635 53.536 239.565 53.662 239.467 53.662C239.411 53.662 239.299 53.592 239.145 53.466C238.487 52.92 237.717 52.64 236.849 52.64C235.729 52.64 234.805 53.088 234.063 53.97C233.195 54.992 232.775 56.322 232.775 57.974C232.775 59.626 233.195 60.942 234.035 61.908C234.777 62.776 235.701 63.21 236.835 63.21C237.689 63.21 238.431 62.916 239.061 62.314C239.649 61.754 240.069 60.956 240.321 59.934C240.349 59.822 240.293 59.71 240.195 59.682L240.153 59.668Z" fill="black"/>
<path d="M208.736 35.804C208.848 35.804 208.918 35.72 208.918 35.594V33.13C208.918 33.004 208.848 32.92 208.736 32.92C208.624 32.92 208.54 33.004 208.526 33.13C208.512 33.368 208.442 33.48 208.358 33.48C208.302 33.48 208.204 33.438 208.064 33.354C207.434 32.948 206.804 32.752 206.174 32.752C205.446 32.752 204.844 32.976 204.368 33.424C203.85 33.914 203.584 34.572 203.584 35.398C203.584 36.14 203.836 36.728 204.34 37.176C204.606 37.414 205.18 37.708 206.034 38.128L206.258 38.24C207.084 38.646 207.63 38.996 207.882 39.318C208.162 39.682 208.316 40.102 208.316 40.564C208.316 41.194 208.148 41.67 207.812 42.034C207.49 42.384 207.056 42.552 206.524 42.552C205.698 42.552 205.054 42.244 204.55 41.6C204.186 41.152 203.962 40.522 203.864 39.752C203.85 39.64 203.794 39.57 203.71 39.57C203.584 39.57 203.5 39.654 203.5 39.78V42.622C203.5 42.748 203.57 42.832 203.654 42.832C203.78 42.832 203.864 42.748 203.878 42.622C203.892 42.342 203.962 42.202 204.088 42.202C204.186 42.202 204.326 42.286 204.494 42.412C205.124 42.888 205.796 43.112 206.524 43.112C207.182 43.112 207.742 42.93 208.232 42.552C208.89 42.048 209.226 41.306 209.226 40.354C209.226 39.724 209.058 39.178 208.708 38.716C208.344 38.24 207.546 37.722 206.286 37.19L205.992 37.064C204.956 36.616 204.424 36 204.424 35.16C204.424 34.684 204.578 34.264 204.844 33.914C205.18 33.48 205.642 33.256 206.216 33.256C206.93 33.256 207.49 33.536 207.91 34.054C208.246 34.488 208.456 34.992 208.54 35.622C208.554 35.734 208.624 35.804 208.736 35.804ZM217.519 39.738C217.519 39.612 217.435 39.528 217.309 39.528H215.965V33.046C215.965 32.92 215.881 32.836 215.755 32.836H215.629C215.573 32.836 215.517 32.864 215.475 32.92L211.149 39.416C211.135 39.444 211.121 39.472 211.121 39.514V39.92C211.121 40.046 211.205 40.13 211.331 40.13H215.223V41.376C215.223 41.866 215.083 42.174 214.831 42.3C214.705 42.37 214.467 42.426 214.117 42.454C214.005 42.468 213.921 42.538 213.921 42.65C213.921 42.776 214.005 42.86 214.131 42.86H216.931C217.057 42.86 217.141 42.776 217.141 42.65C217.141 42.538 217.057 42.468 216.945 42.454C216.581 42.412 216.315 42.342 216.189 42.23C216.049 42.118 215.965 41.824 215.965 41.376V40.13H217.309C217.435 40.13 217.519 40.046 217.519 39.92V39.738ZM215.223 34.264V39.528H211.723L215.223 34.264Z" fill="black"/>
<line x1="120.5" y1="108" x2="120.5" y2="74" stroke="black"/>
<line x1="121" y1="107.5" x2="149" y2="107.5" stroke="black"/>
<line x1="91.5" y1="58" x2="91.5" y2="74" stroke="black"/>
<line x1="34" y1="0.5" x2="64" y2="0.5" stroke="black"/>
<line x1="63.5" y1="1" x2="63.5" y2="73" stroke="black"/>
<line x1="209.5" y1="58" x2="209.5" y2="74" stroke="black"/>
<line x1="148.5" y1="57" x2="148.5" y2="73" stroke="black"/>
<line x1="34" y1="73.5" x2="210" y2="73.5" stroke="black"/>
</svg>
