<svg width="239" height="66" viewBox="0 0 239 66" fill="none" xmlns="http://www.w3.org/2000/svg">
<line x1="237" y1="37.5" y2="37.5" stroke="black"/>
<line x1="0.5" y1="37" x2="0.5" y2="1" stroke="black"/>
<line x1="59.5" y1="37" x2="59.5" y2="1" stroke="black"/>
<line y1="0.5" x2="60" y2="0.5" stroke="black"/>
<rect x="14.5" y="17.5" width="31" height="39" fill="white" stroke="black"/>
<path d="M28.7425 34.804C28.8545 34.804 28.9245 34.72 28.9245 34.594V32.13C28.9245 32.004 28.8545 31.92 28.7425 31.92C28.6305 31.92 28.5465 32.004 28.5325 32.13C28.5185 32.368 28.4485 32.48 28.3645 32.48C28.3085 32.48 28.2105 32.438 28.0705 32.354C27.4405 31.948 26.8105 31.752 26.1805 31.752C25.4525 31.752 24.8505 31.976 24.3745 32.424C23.8565 32.914 23.5905 33.572 23.5905 34.398C23.5905 35.14 23.8425 35.728 24.3465 36.176C24.6125 36.414 25.1865 36.708 26.0405 37.128L26.2645 37.24C27.0905 37.646 27.6365 37.996 27.8885 38.318C28.1685 38.682 28.3225 39.102 28.3225 39.564C28.3225 40.194 28.1545 40.67 27.8185 41.034C27.4965 41.384 27.0625 41.552 26.5305 41.552C25.7045 41.552 25.0605 41.244 24.5565 40.6C24.1925 40.152 23.9685 39.522 23.8705 38.752C23.8565 38.64 23.8005 38.57 23.7165 38.57C23.5905 38.57 23.5065 38.654 23.5065 38.78V41.622C23.5065 41.748 23.5765 41.832 23.6605 41.832C23.7865 41.832 23.8705 41.748 23.8845 41.622C23.8985 41.342 23.9685 41.202 24.0945 41.202C24.1925 41.202 24.3325 41.286 24.5005 41.412C25.1305 41.888 25.8025 42.112 26.5305 42.112C27.1885 42.112 27.7485 41.93 28.2385 41.552C28.8965 41.048 29.2325 40.306 29.2325 39.354C29.2325 38.724 29.0645 38.178 28.7145 37.716C28.3505 37.24 27.5525 36.722 26.2925 36.19L25.9985 36.064C24.9625 35.616 24.4305 35 24.4305 34.16C24.4305 33.684 24.5845 33.264 24.8505 32.914C25.1865 32.48 25.6485 32.256 26.2225 32.256C26.9365 32.256 27.4965 32.536 27.9165 33.054C28.2525 33.488 28.4625 33.992 28.5465 34.622C28.5605 34.734 28.6305 34.804 28.7425 34.804ZM36.3775 41.636C36.3775 41.51 36.2795 41.426 36.1535 41.426C35.6355 41.412 35.3135 41.356 35.1595 41.258C34.9215 41.104 34.7955 40.824 34.7955 40.39V32.13C34.7955 31.878 34.5715 31.766 34.3615 31.892C33.8855 32.158 33.2135 32.354 32.3455 32.466C32.2335 32.48 32.1635 32.564 32.1635 32.676C32.1635 32.802 32.2475 32.886 32.3735 32.886H33.3535C33.7595 32.886 33.9695 33.138 33.9695 33.628V40.39C33.9695 40.852 33.8295 41.146 33.5635 41.286C33.4095 41.37 33.0735 41.412 32.5555 41.426C32.4295 41.426 32.3315 41.51 32.3315 41.636V41.65C32.3315 41.776 32.4155 41.86 32.5415 41.86H36.1675C36.2935 41.86 36.3775 41.776 36.3775 41.65V41.636Z" fill="black"/>
<path d="M59.6151 61.664C59.6151 61.552 59.5311 61.468 59.4191 61.454C59.0831 61.426 58.8451 61.37 58.7051 61.272C58.5091 61.146 58.3971 60.838 58.3971 60.348V53.516C58.3971 53.012 58.5231 52.704 58.7611 52.578C58.9151 52.494 59.1391 52.438 59.4191 52.396C59.5311 52.382 59.6151 52.312 59.6151 52.2C59.6151 52.074 59.5311 51.99 59.4051 51.99H57.3611C57.2771 51.99 57.2071 52.046 57.1791 52.13L54.5051 60.348L51.8171 52.13C51.7891 52.046 51.7191 51.99 51.6351 51.99H49.4931C49.3671 51.99 49.2831 52.074 49.2831 52.2C49.2831 52.312 49.3671 52.382 49.4791 52.396C49.8571 52.438 50.0811 52.508 50.2071 52.578C50.4171 52.704 50.5151 53.026 50.5151 53.53V60.362C50.5151 60.866 50.4031 61.188 50.1791 61.3C50.0251 61.384 49.8151 61.426 49.5211 61.454C49.4091 61.468 49.3251 61.538 49.3251 61.65C49.3251 61.776 49.4091 61.86 49.5351 61.86H52.0551C52.1811 61.86 52.2651 61.776 52.2651 61.664C52.2651 61.552 52.1811 61.468 52.0691 61.454C51.7751 61.412 51.5651 61.37 51.4111 61.272C51.2151 61.146 51.1031 60.838 51.1031 60.362V52.69H51.1591L54.0991 61.72C54.1271 61.804 54.1971 61.86 54.2811 61.86H54.4211C54.5051 61.86 54.5751 61.804 54.6031 61.72L57.5571 52.676H57.5851V60.348C57.5851 60.866 57.4871 61.188 57.2491 61.3C57.1231 61.37 56.8991 61.426 56.5911 61.454C56.4791 61.468 56.3951 61.538 56.3951 61.65C56.3951 61.776 56.4791 61.86 56.6051 61.86H59.4051C59.5311 61.86 59.6151 61.776 59.6151 61.664Z" fill="black"/>
<rect x="73.5" y="17.5" width="31" height="39" fill="white" stroke="black"/>
<path d="M118.615 61.664C118.615 61.552 118.531 61.468 118.419 61.454C118.083 61.426 117.845 61.37 117.705 61.272C117.509 61.146 117.397 60.838 117.397 60.348V53.516C117.397 53.012 117.523 52.704 117.761 52.578C117.915 52.494 118.139 52.438 118.419 52.396C118.531 52.382 118.615 52.312 118.615 52.2C118.615 52.074 118.531 51.99 118.405 51.99H116.361C116.277 51.99 116.207 52.046 116.179 52.13L113.505 60.348L110.817 52.13C110.789 52.046 110.719 51.99 110.635 51.99H108.493C108.367 51.99 108.283 52.074 108.283 52.2C108.283 52.312 108.367 52.382 108.479 52.396C108.857 52.438 109.081 52.508 109.207 52.578C109.417 52.704 109.515 53.026 109.515 53.53V60.362C109.515 60.866 109.403 61.188 109.179 61.3C109.025 61.384 108.815 61.426 108.521 61.454C108.409 61.468 108.325 61.538 108.325 61.65C108.325 61.776 108.409 61.86 108.535 61.86H111.055C111.181 61.86 111.265 61.776 111.265 61.664C111.265 61.552 111.181 61.468 111.069 61.454C110.775 61.412 110.565 61.37 110.411 61.272C110.215 61.146 110.103 60.838 110.103 60.362V52.69H110.159L113.099 61.72C113.127 61.804 113.197 61.86 113.281 61.86H113.421C113.505 61.86 113.575 61.804 113.603 61.72L116.557 52.676H116.585V60.348C116.585 60.866 116.487 61.188 116.249 61.3C116.123 61.37 115.899 61.426 115.591 61.454C115.479 61.468 115.395 61.538 115.395 61.65C115.395 61.776 115.479 61.86 115.605 61.86H118.405C118.531 61.86 118.615 61.776 118.615 61.664Z" fill="black"/>
<path d="M88.2288 34.804C88.3408 34.804 88.4108 34.72 88.4108 34.594V32.13C88.4108 32.004 88.3408 31.92 88.2288 31.92C88.1168 31.92 88.0328 32.004 88.0188 32.13C88.0048 32.368 87.9348 32.48 87.8508 32.48C87.7948 32.48 87.6968 32.438 87.5568 32.354C86.9268 31.948 86.2968 31.752 85.6668 31.752C84.9388 31.752 84.3368 31.976 83.8608 32.424C83.3428 32.914 83.0768 33.572 83.0768 34.398C83.0768 35.14 83.3288 35.728 83.8328 36.176C84.0988 36.414 84.6728 36.708 85.5268 37.128L85.7508 37.24C86.5768 37.646 87.1228 37.996 87.3748 38.318C87.6548 38.682 87.8088 39.102 87.8088 39.564C87.8088 40.194 87.6408 40.67 87.3048 41.034C86.9828 41.384 86.5488 41.552 86.0168 41.552C85.1908 41.552 84.5468 41.244 84.0428 40.6C83.6788 40.152 83.4548 39.522 83.3568 38.752C83.3428 38.64 83.2868 38.57 83.2028 38.57C83.0768 38.57 82.9928 38.654 82.9928 38.78V41.622C82.9928 41.748 83.0628 41.832 83.1468 41.832C83.2728 41.832 83.3568 41.748 83.3708 41.622C83.3848 41.342 83.4548 41.202 83.5808 41.202C83.6788 41.202 83.8188 41.286 83.9868 41.412C84.6168 41.888 85.2888 42.112 86.0168 42.112C86.6748 42.112 87.2348 41.93 87.7248 41.552C88.3828 41.048 88.7188 40.306 88.7188 39.354C88.7188 38.724 88.5508 38.178 88.2008 37.716C87.8368 37.24 87.0388 36.722 85.7788 36.19L85.4848 36.064C84.4488 35.616 83.9168 35 83.9168 34.16C83.9168 33.684 84.0708 33.264 84.3368 32.914C84.6728 32.48 85.1348 32.256 85.7088 32.256C86.4228 32.256 86.9828 32.536 87.4028 33.054C87.7388 33.488 87.9488 33.992 88.0328 34.622C88.0468 34.734 88.1168 34.804 88.2288 34.804ZM96.4658 38.99C96.3678 38.99 96.2838 39.06 96.2698 39.172C96.1438 39.928 96.0038 40.404 95.8778 40.614C95.7238 40.88 95.4018 41.006 94.9118 41.006H91.7618C91.9858 39.83 92.7418 38.738 94.0298 37.772L94.3658 37.52C95.1638 36.918 95.6958 36.386 95.9758 35.924C96.2698 35.434 96.4098 34.902 96.4098 34.314C96.4098 33.46 96.1298 32.788 95.5838 32.284C95.1078 31.85 94.5198 31.64 93.8198 31.64C93.0638 31.64 92.4758 31.92 92.0138 32.452C91.5658 32.97 91.3418 33.544 91.3418 34.188C91.3418 34.804 91.5798 35.126 92.0418 35.126C92.4198 35.126 92.6158 34.902 92.6158 34.44C92.6158 34.02 92.4198 33.796 92.0418 33.782C92.0558 33.488 92.1398 33.208 92.3078 32.928C92.6158 32.41 93.1058 32.158 93.7778 32.158C94.1978 32.158 94.5618 32.298 94.8698 32.564C95.2758 32.942 95.4858 33.502 95.4858 34.244C95.4858 34.79 95.3318 35.294 95.0378 35.784C94.8138 36.134 94.3798 36.596 93.7358 37.184L93.5398 37.366C92.1818 38.626 91.3838 39.956 91.1318 41.286C91.1318 41.286 91.1318 41.3 91.1318 41.314V41.65C91.1318 41.776 91.2158 41.86 91.3418 41.86H96.1578C96.2698 41.86 96.3678 41.79 96.3678 41.678L96.6058 39.228C96.6198 39.102 96.5638 38.99 96.4658 38.99Z" fill="black"/>
<rect x="189.5" y="17.5" width="31" height="39" fill="white" stroke="black"/>
<path d="M235.153 58.668C235.027 58.626 234.901 58.682 234.859 58.822C234.355 60.6 233.403 61.482 231.989 61.482C231.023 61.482 230.239 61.048 229.623 60.152C229.035 59.298 228.741 58.206 228.741 56.862C228.741 55.742 228.937 54.762 229.329 53.908C229.889 52.732 230.743 52.144 231.905 52.144C232.759 52.144 233.473 52.494 233.991 53.194C234.327 53.628 234.537 54.132 234.663 54.734C234.677 54.832 234.747 54.902 234.831 54.902C234.957 54.902 235.041 54.818 235.041 54.692V52.298C235.041 52.172 234.971 52.088 234.873 52.088C234.761 52.088 234.677 52.172 234.663 52.284C234.635 52.536 234.565 52.662 234.467 52.662C234.411 52.662 234.299 52.592 234.145 52.466C233.487 51.92 232.717 51.64 231.849 51.64C230.729 51.64 229.805 52.088 229.063 52.97C228.195 53.992 227.775 55.322 227.775 56.974C227.775 58.626 228.195 59.942 229.035 60.908C229.777 61.776 230.701 62.21 231.835 62.21C232.689 62.21 233.431 61.916 234.061 61.314C234.649 60.754 235.069 59.956 235.321 58.934C235.349 58.822 235.293 58.71 235.195 58.682L235.153 58.668Z" fill="black"/>
<path d="M204.236 34.804C204.348 34.804 204.418 34.72 204.418 34.594V32.13C204.418 32.004 204.348 31.92 204.236 31.92C204.124 31.92 204.04 32.004 204.026 32.13C204.012 32.368 203.942 32.48 203.858 32.48C203.802 32.48 203.704 32.438 203.564 32.354C202.934 31.948 202.304 31.752 201.674 31.752C200.946 31.752 200.344 31.976 199.868 32.424C199.35 32.914 199.084 33.572 199.084 34.398C199.084 35.14 199.336 35.728 199.84 36.176C200.106 36.414 200.68 36.708 201.534 37.128L201.758 37.24C202.584 37.646 203.13 37.996 203.382 38.318C203.662 38.682 203.816 39.102 203.816 39.564C203.816 40.194 203.648 40.67 203.312 41.034C202.99 41.384 202.556 41.552 202.024 41.552C201.198 41.552 200.554 41.244 200.05 40.6C199.686 40.152 199.462 39.522 199.364 38.752C199.35 38.64 199.294 38.57 199.21 38.57C199.084 38.57 199 38.654 199 38.78V41.622C199 41.748 199.07 41.832 199.154 41.832C199.28 41.832 199.364 41.748 199.378 41.622C199.392 41.342 199.462 41.202 199.588 41.202C199.686 41.202 199.826 41.286 199.994 41.412C200.624 41.888 201.296 42.112 202.024 42.112C202.682 42.112 203.242 41.93 203.732 41.552C204.39 41.048 204.726 40.306 204.726 39.354C204.726 38.724 204.558 38.178 204.208 37.716C203.844 37.24 203.046 36.722 201.786 36.19L201.492 36.064C200.456 35.616 199.924 35 199.924 34.16C199.924 33.684 200.078 33.264 200.344 32.914C200.68 32.48 201.142 32.256 201.716 32.256C202.43 32.256 202.99 32.536 203.41 33.054C203.746 33.488 203.956 33.992 204.04 34.622C204.054 34.734 204.124 34.804 204.236 34.804ZM213.019 38.738C213.019 38.612 212.935 38.528 212.809 38.528H211.465V32.046C211.465 31.92 211.381 31.836 211.255 31.836H211.129C211.073 31.836 211.017 31.864 210.975 31.92L206.649 38.416C206.635 38.444 206.621 38.472 206.621 38.514V38.92C206.621 39.046 206.705 39.13 206.831 39.13H210.723V40.376C210.723 40.866 210.583 41.174 210.331 41.3C210.205 41.37 209.967 41.426 209.617 41.454C209.505 41.468 209.421 41.538 209.421 41.65C209.421 41.776 209.505 41.86 209.631 41.86H212.431C212.557 41.86 212.641 41.776 212.641 41.65C212.641 41.538 212.557 41.468 212.445 41.454C212.081 41.412 211.815 41.342 211.689 41.23C211.549 41.118 211.465 40.824 211.465 40.376V39.13H212.809C212.935 39.13 213.019 39.046 213.019 38.92V38.738ZM210.723 33.264V38.528H207.223L210.723 33.264Z" fill="black"/>
<rect x="131.5" y="17.5" width="31" height="39" fill="white" stroke="black"/>
<path d="M176.615 61.664C176.615 61.552 176.531 61.468 176.419 61.454C176.083 61.426 175.845 61.37 175.705 61.272C175.509 61.146 175.397 60.838 175.397 60.348V53.516C175.397 53.012 175.523 52.704 175.761 52.578C175.915 52.494 176.139 52.438 176.419 52.396C176.531 52.382 176.615 52.312 176.615 52.2C176.615 52.074 176.531 51.99 176.405 51.99H174.361C174.277 51.99 174.207 52.046 174.179 52.13L171.505 60.348L168.817 52.13C168.789 52.046 168.719 51.99 168.635 51.99H166.493C166.367 51.99 166.283 52.074 166.283 52.2C166.283 52.312 166.367 52.382 166.479 52.396C166.857 52.438 167.081 52.508 167.207 52.578C167.417 52.704 167.515 53.026 167.515 53.53V60.362C167.515 60.866 167.403 61.188 167.179 61.3C167.025 61.384 166.815 61.426 166.521 61.454C166.409 61.468 166.325 61.538 166.325 61.65C166.325 61.776 166.409 61.86 166.535 61.86H169.055C169.181 61.86 169.265 61.776 169.265 61.664C169.265 61.552 169.181 61.468 169.069 61.454C168.775 61.412 168.565 61.37 168.411 61.272C168.215 61.146 168.103 60.838 168.103 60.362V52.69H168.159L171.099 61.72C171.127 61.804 171.197 61.86 171.281 61.86H171.421C171.505 61.86 171.575 61.804 171.603 61.72L174.557 52.676H174.585V60.348C174.585 60.866 174.487 61.188 174.249 61.3C174.123 61.37 173.899 61.426 173.591 61.454C173.479 61.468 173.395 61.538 173.395 61.65C173.395 61.776 173.479 61.86 173.605 61.86H176.405C176.531 61.86 176.615 61.776 176.615 61.664Z" fill="black"/>
<path d="M146.242 34.804C146.354 34.804 146.424 34.72 146.424 34.594V32.13C146.424 32.004 146.354 31.92 146.242 31.92C146.13 31.92 146.046 32.004 146.032 32.13C146.018 32.368 145.948 32.48 145.864 32.48C145.808 32.48 145.71 32.438 145.57 32.354C144.94 31.948 144.31 31.752 143.68 31.752C142.952 31.752 142.35 31.976 141.874 32.424C141.356 32.914 141.09 33.572 141.09 34.398C141.09 35.14 141.342 35.728 141.846 36.176C142.112 36.414 142.686 36.708 143.54 37.128L143.764 37.24C144.59 37.646 145.136 37.996 145.388 38.318C145.668 38.682 145.822 39.102 145.822 39.564C145.822 40.194 145.654 40.67 145.318 41.034C144.996 41.384 144.562 41.552 144.03 41.552C143.204 41.552 142.56 41.244 142.056 40.6C141.692 40.152 141.468 39.522 141.37 38.752C141.356 38.64 141.3 38.57 141.216 38.57C141.09 38.57 141.006 38.654 141.006 38.78V41.622C141.006 41.748 141.076 41.832 141.16 41.832C141.286 41.832 141.37 41.748 141.384 41.622C141.398 41.342 141.468 41.202 141.594 41.202C141.692 41.202 141.832 41.286 142 41.412C142.63 41.888 143.302 42.112 144.03 42.112C144.688 42.112 145.248 41.93 145.738 41.552C146.396 41.048 146.732 40.306 146.732 39.354C146.732 38.724 146.564 38.178 146.214 37.716C145.85 37.24 145.052 36.722 143.792 36.19L143.498 36.064C142.462 35.616 141.93 35 141.93 34.16C141.93 33.684 142.084 33.264 142.35 32.914C142.686 32.48 143.148 32.256 143.722 32.256C144.436 32.256 144.996 32.536 145.416 33.054C145.752 33.488 145.962 33.992 146.046 34.622C146.06 34.734 146.13 34.804 146.242 34.804ZM152.267 36.596C153.569 36.288 154.213 35.462 154.213 34.132C154.213 33.474 154.017 32.914 153.639 32.466C153.191 31.934 152.547 31.654 151.707 31.654C151.077 31.654 150.503 31.864 150.013 32.27C149.467 32.718 149.201 33.236 149.201 33.81C149.201 34.412 149.425 34.706 149.859 34.706C150.265 34.706 150.447 34.468 150.447 34.006C150.447 33.586 150.265 33.376 149.887 33.376C149.957 33.124 150.097 32.9 150.307 32.704C150.671 32.368 151.105 32.186 151.623 32.186C152.127 32.186 152.547 32.382 152.883 32.76C153.177 33.11 153.345 33.558 153.345 34.118C153.345 34.804 153.149 35.364 152.771 35.812C152.407 36.232 151.959 36.442 151.399 36.442H151.021C150.895 36.442 150.811 36.526 150.811 36.652V36.792C150.811 36.918 150.895 37.002 151.021 37.002H151.399C152.085 37.002 152.603 37.24 152.995 37.688C153.359 38.108 153.527 38.64 153.527 39.27C153.527 39.956 153.331 40.502 152.953 40.95C152.561 41.426 152.071 41.664 151.455 41.664C150.839 41.664 150.349 41.468 150.013 41.076C149.817 40.866 149.719 40.614 149.691 40.362C149.733 40.376 149.789 40.376 149.831 40.376C150.181 40.376 150.335 40.166 150.335 39.732C150.335 39.27 150.139 39.032 149.733 39.032C149.257 39.032 149.019 39.368 149.019 40.026C149.019 40.614 149.257 41.118 149.705 41.524C150.209 42 150.811 42.224 151.539 42.224C152.477 42.224 153.219 41.902 153.751 41.244C154.199 40.712 154.437 40.068 154.437 39.298C154.437 37.898 153.723 37.03 152.267 36.694V36.596Z" fill="black"/>
</svg>
