<svg width="145" height="195" viewBox="0 0 145 195" fill="none" xmlns="http://www.w3.org/2000/svg">
<line x1="73" y1="166.5" x2="132" y2="166.5" stroke="black"/>
<line x1="73" y1="21.5" x2="132" y2="21.5" stroke="black"/>
<line y1="93.5" x2="145" y2="93.5" stroke="black"/>
<line x1="73.5" y1="22" x2="73.5" y2="167" stroke="black"/>
<line x1="131.5" y1="22" x2="131.5" y2="167" stroke="black"/>
<rect x="87.5" y="146.5" width="31" height="39" fill="white" stroke="black"/>
<path d="M131.153 187.668C131.027 187.626 130.901 187.682 130.859 187.822C130.355 189.6 129.403 190.482 127.989 190.482C127.023 190.482 126.239 190.048 125.623 189.152C125.035 188.298 124.741 187.206 124.741 185.862C124.741 184.742 124.937 183.762 125.329 182.908C125.889 181.732 126.743 181.144 127.905 181.144C128.759 181.144 129.473 181.494 129.991 182.194C130.327 182.628 130.537 183.132 130.663 183.734C130.677 183.832 130.747 183.902 130.831 183.902C130.957 183.902 131.041 183.818 131.041 183.692V181.298C131.041 181.172 130.971 181.088 130.873 181.088C130.761 181.088 130.677 181.172 130.663 181.284C130.635 181.536 130.565 181.662 130.467 181.662C130.411 181.662 130.299 181.592 130.145 181.466C129.487 180.92 128.717 180.64 127.849 180.64C126.729 180.64 125.805 181.088 125.063 181.97C124.195 182.992 123.775 184.322 123.775 185.974C123.775 187.626 124.195 188.942 125.035 189.908C125.777 190.776 126.701 191.21 127.835 191.21C128.689 191.21 129.431 190.916 130.061 190.314C130.649 189.754 131.069 188.956 131.321 187.934C131.349 187.822 131.293 187.71 131.195 187.682L131.153 187.668Z" fill="black"/>
<path d="M101.736 163.804C101.848 163.804 101.918 163.72 101.918 163.594V161.13C101.918 161.004 101.848 160.92 101.736 160.92C101.624 160.92 101.54 161.004 101.526 161.13C101.512 161.368 101.442 161.48 101.358 161.48C101.302 161.48 101.204 161.438 101.064 161.354C100.434 160.948 99.8036 160.752 99.1736 160.752C98.4456 160.752 97.8436 160.976 97.3676 161.424C96.8496 161.914 96.5836 162.572 96.5836 163.398C96.5836 164.14 96.8356 164.728 97.3396 165.176C97.6056 165.414 98.1796 165.708 99.0336 166.128L99.2576 166.24C100.084 166.646 100.63 166.996 100.882 167.318C101.162 167.682 101.316 168.102 101.316 168.564C101.316 169.194 101.148 169.67 100.812 170.034C100.49 170.384 100.056 170.552 99.5236 170.552C98.6976 170.552 98.0536 170.244 97.5496 169.6C97.1856 169.152 96.9616 168.522 96.8636 167.752C96.8496 167.64 96.7936 167.57 96.7096 167.57C96.5836 167.57 96.4996 167.654 96.4996 167.78V170.622C96.4996 170.748 96.5696 170.832 96.6536 170.832C96.7796 170.832 96.8636 170.748 96.8776 170.622C96.8916 170.342 96.9616 170.202 97.0876 170.202C97.1856 170.202 97.3256 170.286 97.4936 170.412C98.1236 170.888 98.7956 171.112 99.5236 171.112C100.182 171.112 100.742 170.93 101.232 170.552C101.89 170.048 102.226 169.306 102.226 168.354C102.226 167.724 102.058 167.178 101.708 166.716C101.344 166.24 100.546 165.722 99.2856 165.19L98.9916 165.064C97.9556 164.616 97.4236 164 97.4236 163.16C97.4236 162.684 97.5776 162.264 97.8436 161.914C98.1796 161.48 98.6416 161.256 99.2156 161.256C99.9296 161.256 100.49 161.536 100.91 162.054C101.246 162.488 101.456 162.992 101.54 163.622C101.554 163.734 101.624 163.804 101.736 163.804ZM110.519 167.738C110.519 167.612 110.435 167.528 110.309 167.528H108.965V161.046C108.965 160.92 108.881 160.836 108.755 160.836H108.629C108.573 160.836 108.517 160.864 108.475 160.92L104.149 167.416C104.135 167.444 104.121 167.472 104.121 167.514V167.92C104.121 168.046 104.205 168.13 104.331 168.13H108.223V169.376C108.223 169.866 108.083 170.174 107.831 170.3C107.705 170.37 107.467 170.426 107.117 170.454C107.005 170.468 106.921 170.538 106.921 170.65C106.921 170.776 107.005 170.86 107.131 170.86H109.931C110.057 170.86 110.141 170.776 110.141 170.65C110.141 170.538 110.057 170.468 109.945 170.454C109.581 170.412 109.315 170.342 109.189 170.23C109.049 170.118 108.965 169.824 108.965 169.376V168.13H110.309C110.435 168.13 110.519 168.046 110.519 167.92V167.738ZM108.223 162.264V167.528H104.723L108.223 162.264Z" fill="black"/>
<rect x="87.5" y="0.5" width="31" height="39" fill="white" stroke="black"/>
<path d="M117.153 50.668C117.027 50.626 116.901 50.682 116.859 50.822C116.355 52.6 115.403 53.482 113.989 53.482C113.023 53.482 112.239 53.048 111.623 52.152C111.035 51.298 110.741 50.206 110.741 48.862C110.741 47.742 110.937 46.762 111.329 45.908C111.889 44.732 112.743 44.144 113.905 44.144C114.759 44.144 115.473 44.494 115.991 45.194C116.327 45.628 116.537 46.132 116.663 46.734C116.677 46.832 116.747 46.902 116.831 46.902C116.957 46.902 117.041 46.818 117.041 46.692V44.298C117.041 44.172 116.971 44.088 116.873 44.088C116.761 44.088 116.677 44.172 116.663 44.284C116.635 44.536 116.565 44.662 116.467 44.662C116.411 44.662 116.299 44.592 116.145 44.466C115.487 43.92 114.717 43.64 113.849 43.64C112.729 43.64 111.805 44.088 111.063 44.97C110.195 45.992 109.775 47.322 109.775 48.974C109.775 50.626 110.195 51.942 111.035 52.908C111.777 53.776 112.701 54.21 113.835 54.21C114.689 54.21 115.431 53.916 116.061 53.314C116.649 52.754 117.069 51.956 117.321 50.934C117.349 50.822 117.293 50.71 117.195 50.682L117.153 50.668Z" fill="black"/>
<path d="M101.729 17.804C101.841 17.804 101.911 17.72 101.911 17.594V15.13C101.911 15.004 101.841 14.92 101.729 14.92C101.617 14.92 101.533 15.004 101.519 15.13C101.505 15.368 101.435 15.48 101.351 15.48C101.295 15.48 101.197 15.438 101.057 15.354C100.427 14.948 99.7968 14.752 99.1668 14.752C98.4388 14.752 97.8368 14.976 97.3608 15.424C96.8428 15.914 96.5768 16.572 96.5768 17.398C96.5768 18.14 96.8288 18.728 97.3328 19.176C97.5988 19.414 98.1728 19.708 99.0268 20.128L99.2508 20.24C100.077 20.646 100.623 20.996 100.875 21.318C101.155 21.682 101.309 22.102 101.309 22.564C101.309 23.194 101.141 23.67 100.805 24.034C100.483 24.384 100.049 24.552 99.5168 24.552C98.6908 24.552 98.0468 24.244 97.5428 23.6C97.1788 23.152 96.9548 22.522 96.8568 21.752C96.8428 21.64 96.7868 21.57 96.7028 21.57C96.5768 21.57 96.4928 21.654 96.4928 21.78V24.622C96.4928 24.748 96.5628 24.832 96.6468 24.832C96.7728 24.832 96.8568 24.748 96.8708 24.622C96.8848 24.342 96.9548 24.202 97.0808 24.202C97.1788 24.202 97.3188 24.286 97.4868 24.412C98.1168 24.888 98.7888 25.112 99.5168 25.112C100.175 25.112 100.735 24.93 101.225 24.552C101.883 24.048 102.219 23.306 102.219 22.354C102.219 21.724 102.051 21.178 101.701 20.716C101.337 20.24 100.539 19.722 99.2788 19.19L98.9848 19.064C97.9488 18.616 97.4168 18 97.4168 17.16C97.4168 16.684 97.5708 16.264 97.8368 15.914C98.1728 15.48 98.6348 15.256 99.2088 15.256C99.9228 15.256 100.483 15.536 100.903 16.054C101.239 16.488 101.449 16.992 101.533 17.622C101.547 17.734 101.617 17.804 101.729 17.804ZM109.966 21.99C109.868 21.99 109.784 22.06 109.77 22.172C109.644 22.928 109.504 23.404 109.378 23.614C109.224 23.88 108.902 24.006 108.412 24.006H105.262C105.486 22.83 106.242 21.738 107.53 20.772L107.866 20.52C108.664 19.918 109.196 19.386 109.476 18.924C109.77 18.434 109.91 17.902 109.91 17.314C109.91 16.46 109.63 15.788 109.084 15.284C108.608 14.85 108.02 14.64 107.32 14.64C106.564 14.64 105.976 14.92 105.514 15.452C105.066 15.97 104.842 16.544 104.842 17.188C104.842 17.804 105.08 18.126 105.542 18.126C105.92 18.126 106.116 17.902 106.116 17.44C106.116 17.02 105.92 16.796 105.542 16.782C105.556 16.488 105.64 16.208 105.808 15.928C106.116 15.41 106.606 15.158 107.278 15.158C107.698 15.158 108.062 15.298 108.37 15.564C108.776 15.942 108.986 16.502 108.986 17.244C108.986 17.79 108.832 18.294 108.538 18.784C108.314 19.134 107.88 19.596 107.236 20.184L107.04 20.366C105.682 21.626 104.884 22.956 104.632 24.286C104.632 24.286 104.632 24.3 104.632 24.314V24.65C104.632 24.776 104.716 24.86 104.842 24.86H109.658C109.77 24.86 109.868 24.79 109.868 24.678L110.106 22.228C110.12 22.102 110.064 21.99 109.966 21.99Z" fill="black"/>
<rect x="87.5" y="73.5" width="31" height="39" fill="white" stroke="black"/>
<path d="M117.153 123.668C117.027 123.626 116.901 123.682 116.859 123.822C116.355 125.6 115.403 126.482 113.989 126.482C113.023 126.482 112.239 126.048 111.623 125.152C111.035 124.298 110.741 123.206 110.741 121.862C110.741 120.742 110.937 119.762 111.329 118.908C111.889 117.732 112.743 117.144 113.905 117.144C114.759 117.144 115.473 117.494 115.991 118.194C116.327 118.628 116.537 119.132 116.663 119.734C116.677 119.832 116.747 119.902 116.831 119.902C116.957 119.902 117.041 119.818 117.041 119.692V117.298C117.041 117.172 116.971 117.088 116.873 117.088C116.761 117.088 116.677 117.172 116.663 117.284C116.635 117.536 116.565 117.662 116.467 117.662C116.411 117.662 116.299 117.592 116.145 117.466C115.487 116.92 114.717 116.64 113.849 116.64C112.729 116.64 111.805 117.088 111.063 117.97C110.195 118.992 109.775 120.322 109.775 121.974C109.775 123.626 110.195 124.942 111.035 125.908C111.777 126.776 112.701 127.21 113.835 127.21C114.689 127.21 115.431 126.916 116.061 126.314C116.649 125.754 117.069 124.956 117.321 123.934C117.349 123.822 117.293 123.71 117.195 123.682L117.153 123.668Z" fill="black"/>
<path d="M101.742 90.804C101.854 90.804 101.924 90.72 101.924 90.594V88.13C101.924 88.004 101.854 87.92 101.742 87.92C101.63 87.92 101.546 88.004 101.532 88.13C101.518 88.368 101.448 88.48 101.364 88.48C101.308 88.48 101.21 88.438 101.07 88.354C100.44 87.948 99.8105 87.752 99.1805 87.752C98.4525 87.752 97.8505 87.976 97.3745 88.424C96.8565 88.914 96.5905 89.572 96.5905 90.398C96.5905 91.14 96.8425 91.728 97.3465 92.176C97.6125 92.414 98.1865 92.708 99.0405 93.128L99.2645 93.24C100.09 93.646 100.636 93.996 100.888 94.318C101.168 94.682 101.322 95.102 101.322 95.564C101.322 96.194 101.154 96.67 100.818 97.034C100.496 97.384 100.062 97.552 99.5305 97.552C98.7045 97.552 98.0605 97.244 97.5565 96.6C97.1925 96.152 96.9685 95.522 96.8705 94.752C96.8565 94.64 96.8005 94.57 96.7165 94.57C96.5905 94.57 96.5065 94.654 96.5065 94.78V97.622C96.5065 97.748 96.5765 97.832 96.6605 97.832C96.7865 97.832 96.8705 97.748 96.8845 97.622C96.8985 97.342 96.9685 97.202 97.0945 97.202C97.1925 97.202 97.3325 97.286 97.5005 97.412C98.1305 97.888 98.8025 98.112 99.5305 98.112C100.188 98.112 100.748 97.93 101.238 97.552C101.896 97.048 102.232 96.306 102.232 95.354C102.232 94.724 102.064 94.178 101.714 93.716C101.35 93.24 100.552 92.722 99.2925 92.19L98.9985 92.064C97.9625 91.616 97.4305 91 97.4305 90.16C97.4305 89.684 97.5845 89.264 97.8505 88.914C98.1865 88.48 98.6485 88.256 99.2225 88.256C99.9365 88.256 100.496 88.536 100.916 89.054C101.252 89.488 101.462 89.992 101.546 90.622C101.56 90.734 101.63 90.804 101.742 90.804ZM107.767 92.596C109.069 92.288 109.713 91.462 109.713 90.132C109.713 89.474 109.517 88.914 109.139 88.466C108.691 87.934 108.047 87.654 107.207 87.654C106.577 87.654 106.003 87.864 105.513 88.27C104.967 88.718 104.701 89.236 104.701 89.81C104.701 90.412 104.925 90.706 105.359 90.706C105.765 90.706 105.947 90.468 105.947 90.006C105.947 89.586 105.765 89.376 105.387 89.376C105.457 89.124 105.597 88.9 105.807 88.704C106.171 88.368 106.605 88.186 107.123 88.186C107.627 88.186 108.047 88.382 108.383 88.76C108.677 89.11 108.845 89.558 108.845 90.118C108.845 90.804 108.649 91.364 108.271 91.812C107.907 92.232 107.459 92.442 106.899 92.442H106.521C106.395 92.442 106.311 92.526 106.311 92.652V92.792C106.311 92.918 106.395 93.002 106.521 93.002H106.899C107.585 93.002 108.103 93.24 108.495 93.688C108.859 94.108 109.027 94.64 109.027 95.27C109.027 95.956 108.831 96.502 108.453 96.95C108.061 97.426 107.571 97.664 106.955 97.664C106.339 97.664 105.849 97.468 105.513 97.076C105.317 96.866 105.219 96.614 105.191 96.362C105.233 96.376 105.289 96.376 105.331 96.376C105.681 96.376 105.835 96.166 105.835 95.732C105.835 95.27 105.639 95.032 105.233 95.032C104.757 95.032 104.519 95.368 104.519 96.026C104.519 96.614 104.757 97.118 105.205 97.524C105.709 98 106.311 98.224 107.039 98.224C107.977 98.224 108.719 97.902 109.251 97.244C109.699 96.712 109.937 96.068 109.937 95.298C109.937 93.898 109.223 93.03 107.767 92.694V92.596Z" fill="black"/>
<line x1="0.5" y1="93" x2="0.5" y2="57" stroke="black"/>
<line x1="59.5" y1="93" x2="59.5" y2="57" stroke="black"/>
<line y1="56.5" x2="60" y2="56.5" stroke="black"/>
<rect x="14.5" y="73.5" width="31" height="39" fill="white" stroke="black"/>
<path d="M28.7425 90.804C28.8545 90.804 28.9245 90.72 28.9245 90.594V88.13C28.9245 88.004 28.8545 87.92 28.7425 87.92C28.6305 87.92 28.5465 88.004 28.5325 88.13C28.5185 88.368 28.4485 88.48 28.3645 88.48C28.3085 88.48 28.2105 88.438 28.0705 88.354C27.4405 87.948 26.8105 87.752 26.1805 87.752C25.4525 87.752 24.8505 87.976 24.3745 88.424C23.8565 88.914 23.5905 89.572 23.5905 90.398C23.5905 91.14 23.8425 91.728 24.3465 92.176C24.6125 92.414 25.1865 92.708 26.0405 93.128L26.2645 93.24C27.0905 93.646 27.6365 93.996 27.8885 94.318C28.1685 94.682 28.3225 95.102 28.3225 95.564C28.3225 96.194 28.1545 96.67 27.8185 97.034C27.4965 97.384 27.0625 97.552 26.5305 97.552C25.7045 97.552 25.0605 97.244 24.5565 96.6C24.1925 96.152 23.9685 95.522 23.8705 94.752C23.8565 94.64 23.8005 94.57 23.7165 94.57C23.5905 94.57 23.5065 94.654 23.5065 94.78V97.622C23.5065 97.748 23.5765 97.832 23.6605 97.832C23.7865 97.832 23.8705 97.748 23.8845 97.622C23.8985 97.342 23.9685 97.202 24.0945 97.202C24.1925 97.202 24.3325 97.286 24.5005 97.412C25.1305 97.888 25.8025 98.112 26.5305 98.112C27.1885 98.112 27.7485 97.93 28.2385 97.552C28.8965 97.048 29.2325 96.306 29.2325 95.354C29.2325 94.724 29.0645 94.178 28.7145 93.716C28.3505 93.24 27.5525 92.722 26.2925 92.19L25.9985 92.064C24.9625 91.616 24.4305 91 24.4305 90.16C24.4305 89.684 24.5845 89.264 24.8505 88.914C25.1865 88.48 25.6485 88.256 26.2225 88.256C26.9365 88.256 27.4965 88.536 27.9165 89.054C28.2525 89.488 28.4625 89.992 28.5465 90.622C28.5605 90.734 28.6305 90.804 28.7425 90.804ZM36.3775 97.636C36.3775 97.51 36.2795 97.426 36.1535 97.426C35.6355 97.412 35.3135 97.356 35.1595 97.258C34.9215 97.104 34.7955 96.824 34.7955 96.39V88.13C34.7955 87.878 34.5715 87.766 34.3615 87.892C33.8855 88.158 33.2135 88.354 32.3455 88.466C32.2335 88.48 32.1635 88.564 32.1635 88.676C32.1635 88.802 32.2475 88.886 32.3735 88.886H33.3535C33.7595 88.886 33.9695 89.138 33.9695 89.628V96.39C33.9695 96.852 33.8295 97.146 33.5635 97.286C33.4095 97.37 33.0735 97.412 32.5555 97.426C32.4295 97.426 32.3315 97.51 32.3315 97.636V97.65C32.3315 97.776 32.4155 97.86 32.5415 97.86H36.1675C36.2935 97.86 36.3775 97.776 36.3775 97.65V97.636Z" fill="black"/>
<path d="M59.6151 117.664C59.6151 117.552 59.5311 117.468 59.4191 117.454C59.0831 117.426 58.8451 117.37 58.7051 117.272C58.5091 117.146 58.3971 116.838 58.3971 116.348V109.516C58.3971 109.012 58.5231 108.704 58.7611 108.578C58.9151 108.494 59.1391 108.438 59.4191 108.396C59.5311 108.382 59.6151 108.312 59.6151 108.2C59.6151 108.074 59.5311 107.99 59.4051 107.99H57.3611C57.2771 107.99 57.2071 108.046 57.1791 108.13L54.5051 116.348L51.8171 108.13C51.7891 108.046 51.7191 107.99 51.6351 107.99H49.4931C49.3671 107.99 49.2831 108.074 49.2831 108.2C49.2831 108.312 49.3671 108.382 49.4791 108.396C49.8571 108.438 50.0811 108.508 50.2071 108.578C50.4171 108.704 50.5151 109.026 50.5151 109.53V116.362C50.5151 116.866 50.4031 117.188 50.1791 117.3C50.0251 117.384 49.8151 117.426 49.5211 117.454C49.4091 117.468 49.3251 117.538 49.3251 117.65C49.3251 117.776 49.4091 117.86 49.5351 117.86H52.0551C52.1811 117.86 52.2651 117.776 52.2651 117.664C52.2651 117.552 52.1811 117.468 52.0691 117.454C51.7751 117.412 51.5651 117.37 51.4111 117.272C51.2151 117.146 51.1031 116.838 51.1031 116.362V108.69H51.1591L54.0991 117.72C54.1271 117.804 54.1971 117.86 54.2811 117.86H54.4211C54.5051 117.86 54.5751 117.804 54.6031 117.72L57.5571 108.676H57.5851V116.348C57.5851 116.866 57.4871 117.188 57.2491 117.3C57.1231 117.37 56.8991 117.426 56.5911 117.454C56.4791 117.468 56.3951 117.538 56.3951 117.65C56.3951 117.776 56.4791 117.86 56.6051 117.86H59.4051C59.5311 117.86 59.6151 117.776 59.6151 117.664Z" fill="black"/>
</svg>
