<svg width="195" height="141" viewBox="0 0 195 141" fill="none" xmlns="http://www.w3.org/2000/svg">
<line y1="37.5" x2="131" y2="37.5" stroke="black"/>
<line x1="0.5" y1="37" x2="0.5" y2="1" stroke="black"/>
<line x1="59.5" y1="37" x2="59.5" y2="1" stroke="black"/>
<line y1="0.5" x2="60" y2="0.5" stroke="black"/>
<rect x="14.5" y="17.5" width="31" height="39" fill="white" stroke="black"/>
<path d="M28.7425 34.804C28.8545 34.804 28.9245 34.72 28.9245 34.594V32.13C28.9245 32.004 28.8545 31.92 28.7425 31.92C28.6305 31.92 28.5465 32.004 28.5325 32.13C28.5185 32.368 28.4485 32.48 28.3645 32.48C28.3085 32.48 28.2105 32.438 28.0705 32.354C27.4405 31.948 26.8105 31.752 26.1805 31.752C25.4525 31.752 24.8505 31.976 24.3745 32.424C23.8565 32.914 23.5905 33.572 23.5905 34.398C23.5905 35.14 23.8425 35.728 24.3465 36.176C24.6125 36.414 25.1865 36.708 26.0405 37.128L26.2645 37.24C27.0905 37.646 27.6365 37.996 27.8885 38.318C28.1685 38.682 28.3225 39.102 28.3225 39.564C28.3225 40.194 28.1545 40.67 27.8185 41.034C27.4965 41.384 27.0625 41.552 26.5305 41.552C25.7045 41.552 25.0605 41.244 24.5565 40.6C24.1925 40.152 23.9685 39.522 23.8705 38.752C23.8565 38.64 23.8005 38.57 23.7165 38.57C23.5905 38.57 23.5065 38.654 23.5065 38.78V41.622C23.5065 41.748 23.5765 41.832 23.6605 41.832C23.7865 41.832 23.8705 41.748 23.8845 41.622C23.8985 41.342 23.9685 41.202 24.0945 41.202C24.1925 41.202 24.3325 41.286 24.5005 41.412C25.1305 41.888 25.8025 42.112 26.5305 42.112C27.1885 42.112 27.7485 41.93 28.2385 41.552C28.8965 41.048 29.2325 40.306 29.2325 39.354C29.2325 38.724 29.0645 38.178 28.7145 37.716C28.3505 37.24 27.5525 36.722 26.2925 36.19L25.9985 36.064C24.9625 35.616 24.4305 35 24.4305 34.16C24.4305 33.684 24.5845 33.264 24.8505 32.914C25.1865 32.48 25.6485 32.256 26.2225 32.256C26.9365 32.256 27.4965 32.536 27.9165 33.054C28.2525 33.488 28.4625 33.992 28.5465 34.622C28.5605 34.734 28.6305 34.804 28.7425 34.804ZM36.3775 41.636C36.3775 41.51 36.2795 41.426 36.1535 41.426C35.6355 41.412 35.3135 41.356 35.1595 41.258C34.9215 41.104 34.7955 40.824 34.7955 40.39V32.13C34.7955 31.878 34.5715 31.766 34.3615 31.892C33.8855 32.158 33.2135 32.354 32.3455 32.466C32.2335 32.48 32.1635 32.564 32.1635 32.676C32.1635 32.802 32.2475 32.886 32.3735 32.886H33.3535C33.7595 32.886 33.9695 33.138 33.9695 33.628V40.39C33.9695 40.852 33.8295 41.146 33.5635 41.286C33.4095 41.37 33.0735 41.412 32.5555 41.426C32.4295 41.426 32.3315 41.51 32.3315 41.636V41.65C32.3315 41.776 32.4155 41.86 32.5415 41.86H36.1675C36.2935 41.86 36.3775 41.776 36.3775 41.65V41.636Z" fill="black"/>
<path d="M59.6151 61.664C59.6151 61.552 59.5311 61.468 59.4191 61.454C59.0831 61.426 58.8451 61.37 58.7051 61.272C58.5091 61.146 58.3971 60.838 58.3971 60.348V53.516C58.3971 53.012 58.5231 52.704 58.7611 52.578C58.9151 52.494 59.1391 52.438 59.4191 52.396C59.5311 52.382 59.6151 52.312 59.6151 52.2C59.6151 52.074 59.5311 51.99 59.4051 51.99H57.3611C57.2771 51.99 57.2071 52.046 57.1791 52.13L54.5051 60.348L51.8171 52.13C51.7891 52.046 51.7191 51.99 51.6351 51.99H49.4931C49.3671 51.99 49.2831 52.074 49.2831 52.2C49.2831 52.312 49.3671 52.382 49.4791 52.396C49.8571 52.438 50.0811 52.508 50.2071 52.578C50.4171 52.704 50.5151 53.026 50.5151 53.53V60.362C50.5151 60.866 50.4031 61.188 50.1791 61.3C50.0251 61.384 49.8151 61.426 49.5211 61.454C49.4091 61.468 49.3251 61.538 49.3251 61.65C49.3251 61.776 49.4091 61.86 49.5351 61.86H52.0551C52.1811 61.86 52.2651 61.776 52.2651 61.664C52.2651 61.552 52.1811 61.468 52.0691 61.454C51.7751 61.412 51.5651 61.37 51.4111 61.272C51.2151 61.146 51.1031 60.838 51.1031 60.362V52.69H51.1591L54.0991 61.72C54.1271 61.804 54.1971 61.86 54.2811 61.86H54.4211C54.5051 61.86 54.5751 61.804 54.6031 61.72L57.5571 52.676H57.5851V60.348C57.5851 60.866 57.4871 61.188 57.2491 61.3C57.1231 61.37 56.8991 61.426 56.5911 61.454C56.4791 61.468 56.3951 61.538 56.3951 61.65C56.3951 61.776 56.4791 61.86 56.6051 61.86H59.4051C59.5311 61.86 59.6151 61.776 59.6151 61.664Z" fill="black"/>
<line x1="130.5" y1="112" x2="130.5" y2="38" stroke="black"/>
<line x1="102" y1="112.5" x2="131" y2="112.5" stroke="black"/>
<line x1="131" y1="76.5" x2="189" y2="76.5" stroke="black"/>
<rect x="145.5" y="56.5" width="31" height="39" fill="white" stroke="black"/>
<path d="M191.153 97.668C191.027 97.626 190.901 97.682 190.859 97.822C190.355 99.6 189.403 100.482 187.989 100.482C187.023 100.482 186.239 100.048 185.623 99.152C185.035 98.298 184.741 97.206 184.741 95.862C184.741 94.742 184.937 93.762 185.329 92.908C185.889 91.732 186.743 91.144 187.905 91.144C188.759 91.144 189.473 91.494 189.991 92.194C190.327 92.628 190.537 93.132 190.663 93.734C190.677 93.832 190.747 93.902 190.831 93.902C190.957 93.902 191.041 93.818 191.041 93.692V91.298C191.041 91.172 190.971 91.088 190.873 91.088C190.761 91.088 190.677 91.172 190.663 91.284C190.635 91.536 190.565 91.662 190.467 91.662C190.411 91.662 190.299 91.592 190.145 91.466C189.487 90.92 188.717 90.64 187.849 90.64C186.729 90.64 185.805 91.088 185.063 91.97C184.195 92.992 183.775 94.322 183.775 95.974C183.775 97.626 184.195 98.942 185.035 99.908C185.777 100.776 186.701 101.21 187.835 101.21C188.689 101.21 189.431 100.916 190.061 100.314C190.649 99.754 191.069 98.956 191.321 97.934C191.349 97.822 191.293 97.71 191.195 97.682L191.153 97.668Z" fill="black"/>
<path d="M159.736 73.804C159.848 73.804 159.918 73.72 159.918 73.594V71.13C159.918 71.004 159.848 70.92 159.736 70.92C159.624 70.92 159.54 71.004 159.526 71.13C159.512 71.368 159.442 71.48 159.358 71.48C159.302 71.48 159.204 71.438 159.064 71.354C158.434 70.948 157.804 70.752 157.174 70.752C156.446 70.752 155.844 70.976 155.368 71.424C154.85 71.914 154.584 72.572 154.584 73.398C154.584 74.14 154.836 74.728 155.34 75.176C155.606 75.414 156.18 75.708 157.034 76.128L157.258 76.24C158.084 76.646 158.63 76.996 158.882 77.318C159.162 77.682 159.316 78.102 159.316 78.564C159.316 79.194 159.148 79.67 158.812 80.034C158.49 80.384 158.056 80.552 157.524 80.552C156.698 80.552 156.054 80.244 155.55 79.6C155.186 79.152 154.962 78.522 154.864 77.752C154.85 77.64 154.794 77.57 154.71 77.57C154.584 77.57 154.5 77.654 154.5 77.78V80.622C154.5 80.748 154.57 80.832 154.654 80.832C154.78 80.832 154.864 80.748 154.878 80.622C154.892 80.342 154.962 80.202 155.088 80.202C155.186 80.202 155.326 80.286 155.494 80.412C156.124 80.888 156.796 81.112 157.524 81.112C158.182 81.112 158.742 80.93 159.232 80.552C159.89 80.048 160.226 79.306 160.226 78.354C160.226 77.724 160.058 77.178 159.708 76.716C159.344 76.24 158.546 75.722 157.286 75.19L156.992 75.064C155.956 74.616 155.424 74 155.424 73.16C155.424 72.684 155.578 72.264 155.844 71.914C156.18 71.48 156.642 71.256 157.216 71.256C157.93 71.256 158.49 71.536 158.91 72.054C159.246 72.488 159.456 72.992 159.54 73.622C159.554 73.734 159.624 73.804 159.736 73.804ZM168.519 77.738C168.519 77.612 168.435 77.528 168.309 77.528H166.965V71.046C166.965 70.92 166.881 70.836 166.755 70.836H166.629C166.573 70.836 166.517 70.864 166.475 70.92L162.149 77.416C162.135 77.444 162.121 77.472 162.121 77.514V77.92C162.121 78.046 162.205 78.13 162.331 78.13H166.223V79.376C166.223 79.866 166.083 80.174 165.831 80.3C165.705 80.37 165.467 80.426 165.117 80.454C165.005 80.468 164.921 80.538 164.921 80.65C164.921 80.776 165.005 80.86 165.131 80.86H167.931C168.057 80.86 168.141 80.776 168.141 80.65C168.141 80.538 168.057 80.468 167.945 80.454C167.581 80.412 167.315 80.342 167.189 80.23C167.049 80.118 166.965 79.824 166.965 79.376V78.13H168.309C168.435 78.13 168.519 78.046 168.519 77.92V77.738ZM166.223 72.264V77.528H162.723L166.223 72.264Z" fill="black"/>
<rect x="71.5" y="92.5" width="31" height="39" fill="white" stroke="black"/>
<path d="M116.615 136.664C116.615 136.552 116.531 136.468 116.419 136.454C116.083 136.426 115.845 136.37 115.705 136.272C115.509 136.146 115.397 135.838 115.397 135.348V128.516C115.397 128.012 115.523 127.704 115.761 127.578C115.915 127.494 116.139 127.438 116.419 127.396C116.531 127.382 116.615 127.312 116.615 127.2C116.615 127.074 116.531 126.99 116.405 126.99H114.361C114.277 126.99 114.207 127.046 114.179 127.13L111.505 135.348L108.817 127.13C108.789 127.046 108.719 126.99 108.635 126.99H106.493C106.367 126.99 106.283 127.074 106.283 127.2C106.283 127.312 106.367 127.382 106.479 127.396C106.857 127.438 107.081 127.508 107.207 127.578C107.417 127.704 107.515 128.026 107.515 128.53V135.362C107.515 135.866 107.403 136.188 107.179 136.3C107.025 136.384 106.815 136.426 106.521 136.454C106.409 136.468 106.325 136.538 106.325 136.65C106.325 136.776 106.409 136.86 106.535 136.86H109.055C109.181 136.86 109.265 136.776 109.265 136.664C109.265 136.552 109.181 136.468 109.069 136.454C108.775 136.412 108.565 136.37 108.411 136.272C108.215 136.146 108.103 135.838 108.103 135.362V127.69H108.159L111.099 136.72C111.127 136.804 111.197 136.86 111.281 136.86H111.421C111.505 136.86 111.575 136.804 111.603 136.72L114.557 127.676H114.585V135.348C114.585 135.866 114.487 136.188 114.249 136.3C114.123 136.37 113.899 136.426 113.591 136.454C113.479 136.468 113.395 136.538 113.395 136.65C113.395 136.776 113.479 136.86 113.605 136.86H116.405C116.531 136.86 116.615 136.776 116.615 136.664Z" fill="black"/>
<path d="M85.7425 109.804C85.8545 109.804 85.9245 109.72 85.9245 109.594V107.13C85.9245 107.004 85.8545 106.92 85.7425 106.92C85.6305 106.92 85.5465 107.004 85.5325 107.13C85.5185 107.368 85.4485 107.48 85.3645 107.48C85.3085 107.48 85.2105 107.438 85.0705 107.354C84.4405 106.948 83.8105 106.752 83.1805 106.752C82.4525 106.752 81.8505 106.976 81.3745 107.424C80.8565 107.914 80.5905 108.572 80.5905 109.398C80.5905 110.14 80.8425 110.728 81.3465 111.176C81.6125 111.414 82.1865 111.708 83.0405 112.128L83.2645 112.24C84.0905 112.646 84.6365 112.996 84.8885 113.318C85.1685 113.682 85.3225 114.102 85.3225 114.564C85.3225 115.194 85.1545 115.67 84.8185 116.034C84.4965 116.384 84.0625 116.552 83.5305 116.552C82.7045 116.552 82.0605 116.244 81.5565 115.6C81.1925 115.152 80.9685 114.522 80.8705 113.752C80.8565 113.64 80.8005 113.57 80.7165 113.57C80.5905 113.57 80.5065 113.654 80.5065 113.78V116.622C80.5065 116.748 80.5765 116.832 80.6605 116.832C80.7865 116.832 80.8705 116.748 80.8845 116.622C80.8985 116.342 80.9685 116.202 81.0945 116.202C81.1925 116.202 81.3325 116.286 81.5005 116.412C82.1305 116.888 82.8025 117.112 83.5305 117.112C84.1885 117.112 84.7485 116.93 85.2385 116.552C85.8965 116.048 86.2325 115.306 86.2325 114.354C86.2325 113.724 86.0645 113.178 85.7145 112.716C85.3505 112.24 84.5525 111.722 83.2925 111.19L82.9985 111.064C81.9625 110.616 81.4305 110 81.4305 109.16C81.4305 108.684 81.5845 108.264 81.8505 107.914C82.1865 107.48 82.6485 107.256 83.2225 107.256C83.9365 107.256 84.4965 107.536 84.9165 108.054C85.2525 108.488 85.4625 108.992 85.5465 109.622C85.5605 109.734 85.6305 109.804 85.7425 109.804ZM91.7675 111.596C93.0695 111.288 93.7135 110.462 93.7135 109.132C93.7135 108.474 93.5175 107.914 93.1395 107.466C92.6915 106.934 92.0475 106.654 91.2075 106.654C90.5775 106.654 90.0035 106.864 89.5135 107.27C88.9675 107.718 88.7015 108.236 88.7015 108.81C88.7015 109.412 88.9255 109.706 89.3595 109.706C89.7655 109.706 89.9475 109.468 89.9475 109.006C89.9475 108.586 89.7655 108.376 89.3875 108.376C89.4575 108.124 89.5975 107.9 89.8075 107.704C90.1715 107.368 90.6055 107.186 91.1235 107.186C91.6275 107.186 92.0475 107.382 92.3835 107.76C92.6775 108.11 92.8455 108.558 92.8455 109.118C92.8455 109.804 92.6495 110.364 92.2715 110.812C91.9075 111.232 91.4595 111.442 90.8995 111.442H90.5215C90.3955 111.442 90.3115 111.526 90.3115 111.652V111.792C90.3115 111.918 90.3955 112.002 90.5215 112.002H90.8995C91.5855 112.002 92.1035 112.24 92.4955 112.688C92.8595 113.108 93.0275 113.64 93.0275 114.27C93.0275 114.956 92.8315 115.502 92.4535 115.95C92.0615 116.426 91.5715 116.664 90.9555 116.664C90.3395 116.664 89.8495 116.468 89.5135 116.076C89.3175 115.866 89.2195 115.614 89.1915 115.362C89.2335 115.376 89.2895 115.376 89.3315 115.376C89.6815 115.376 89.8355 115.166 89.8355 114.732C89.8355 114.27 89.6395 114.032 89.2335 114.032C88.7575 114.032 88.5195 114.368 88.5195 115.026C88.5195 115.614 88.7575 116.118 89.2055 116.524C89.7095 117 90.3115 117.224 91.0395 117.224C91.9775 117.224 92.7195 116.902 93.2515 116.244C93.6995 115.712 93.9375 115.068 93.9375 114.298C93.9375 112.898 93.2235 112.03 91.7675 111.694V111.596Z" fill="black"/>
<rect x="71.5" y="19.5" width="31" height="39" fill="white" stroke="black"/>
<path d="M116.615 63.664C116.615 63.552 116.531 63.468 116.419 63.454C116.083 63.426 115.845 63.37 115.705 63.272C115.509 63.146 115.397 62.838 115.397 62.348V55.516C115.397 55.012 115.523 54.704 115.761 54.578C115.915 54.494 116.139 54.438 116.419 54.396C116.531 54.382 116.615 54.312 116.615 54.2C116.615 54.074 116.531 53.99 116.405 53.99H114.361C114.277 53.99 114.207 54.046 114.179 54.13L111.505 62.348L108.817 54.13C108.789 54.046 108.719 53.99 108.635 53.99H106.493C106.367 53.99 106.283 54.074 106.283 54.2C106.283 54.312 106.367 54.382 106.479 54.396C106.857 54.438 107.081 54.508 107.207 54.578C107.417 54.704 107.515 55.026 107.515 55.53V62.362C107.515 62.866 107.403 63.188 107.179 63.3C107.025 63.384 106.815 63.426 106.521 63.454C106.409 63.468 106.325 63.538 106.325 63.65C106.325 63.776 106.409 63.86 106.535 63.86H109.055C109.181 63.86 109.265 63.776 109.265 63.664C109.265 63.552 109.181 63.468 109.069 63.454C108.775 63.412 108.565 63.37 108.411 63.272C108.215 63.146 108.103 62.838 108.103 62.362V54.69H108.159L111.099 63.72C111.127 63.804 111.197 63.86 111.281 63.86H111.421C111.505 63.86 111.575 63.804 111.603 63.72L114.557 54.676H114.585V62.348C114.585 62.866 114.487 63.188 114.249 63.3C114.123 63.37 113.899 63.426 113.591 63.454C113.479 63.468 113.395 63.538 113.395 63.65C113.395 63.776 113.479 63.86 113.605 63.86H116.405C116.531 63.86 116.615 63.776 116.615 63.664Z" fill="black"/>
<path d="M85.7288 36.804C85.8408 36.804 85.9108 36.72 85.9108 36.594V34.13C85.9108 34.004 85.8408 33.92 85.7288 33.92C85.6168 33.92 85.5328 34.004 85.5188 34.13C85.5048 34.368 85.4348 34.48 85.3508 34.48C85.2948 34.48 85.1968 34.438 85.0568 34.354C84.4268 33.948 83.7968 33.752 83.1668 33.752C82.4388 33.752 81.8368 33.976 81.3608 34.424C80.8428 34.914 80.5768 35.572 80.5768 36.398C80.5768 37.14 80.8288 37.728 81.3328 38.176C81.5988 38.414 82.1728 38.708 83.0268 39.128L83.2508 39.24C84.0768 39.646 84.6228 39.996 84.8748 40.318C85.1548 40.682 85.3088 41.102 85.3088 41.564C85.3088 42.194 85.1408 42.67 84.8048 43.034C84.4828 43.384 84.0488 43.552 83.5168 43.552C82.6908 43.552 82.0468 43.244 81.5428 42.6C81.1788 42.152 80.9548 41.522 80.8568 40.752C80.8428 40.64 80.7868 40.57 80.7028 40.57C80.5768 40.57 80.4928 40.654 80.4928 40.78V43.622C80.4928 43.748 80.5628 43.832 80.6468 43.832C80.7728 43.832 80.8568 43.748 80.8708 43.622C80.8848 43.342 80.9548 43.202 81.0808 43.202C81.1788 43.202 81.3188 43.286 81.4868 43.412C82.1168 43.888 82.7888 44.112 83.5168 44.112C84.1748 44.112 84.7348 43.93 85.2248 43.552C85.8828 43.048 86.2188 42.306 86.2188 41.354C86.2188 40.724 86.0508 40.178 85.7008 39.716C85.3368 39.24 84.5388 38.722 83.2788 38.19L82.9848 38.064C81.9488 37.616 81.4168 37 81.4168 36.16C81.4168 35.684 81.5708 35.264 81.8368 34.914C82.1728 34.48 82.6348 34.256 83.2088 34.256C83.9228 34.256 84.4828 34.536 84.9028 35.054C85.2388 35.488 85.4488 35.992 85.5328 36.622C85.5468 36.734 85.6168 36.804 85.7288 36.804ZM93.9658 40.99C93.8678 40.99 93.7838 41.06 93.7698 41.172C93.6438 41.928 93.5038 42.404 93.3778 42.614C93.2238 42.88 92.9018 43.006 92.4118 43.006H89.2618C89.4858 41.83 90.2418 40.738 91.5298 39.772L91.8658 39.52C92.6638 38.918 93.1958 38.386 93.4758 37.924C93.7698 37.434 93.9098 36.902 93.9098 36.314C93.9098 35.46 93.6298 34.788 93.0838 34.284C92.6078 33.85 92.0198 33.64 91.3198 33.64C90.5638 33.64 89.9758 33.92 89.5138 34.452C89.0658 34.97 88.8418 35.544 88.8418 36.188C88.8418 36.804 89.0798 37.126 89.5418 37.126C89.9198 37.126 90.1158 36.902 90.1158 36.44C90.1158 36.02 89.9198 35.796 89.5418 35.782C89.5558 35.488 89.6398 35.208 89.8078 34.928C90.1158 34.41 90.6058 34.158 91.2778 34.158C91.6978 34.158 92.0618 34.298 92.3698 34.564C92.7758 34.942 92.9858 35.502 92.9858 36.244C92.9858 36.79 92.8318 37.294 92.5378 37.784C92.3138 38.134 91.8798 38.596 91.2358 39.184L91.0398 39.366C89.6818 40.626 88.8838 41.956 88.6318 43.286C88.6318 43.286 88.6318 43.3 88.6318 43.314V43.65C88.6318 43.776 88.7158 43.86 88.8418 43.86H93.6578C93.7698 43.86 93.8678 43.79 93.8678 43.678L94.1058 41.228C94.1198 41.102 94.0638 40.99 93.9658 40.99Z" fill="black"/>
</svg>
