<svg width="182" height="140" viewBox="0 0 182 140" fill="none" xmlns="http://www.w3.org/2000/svg">
<line x1="44" y1="37.5" x2="119" y2="37.5" stroke="black"/>
<line x1="44.5" y1="37" x2="44.5" y2="1" stroke="black"/>
<line x1="103.5" y1="37" x2="103.5" y2="1" stroke="black"/>
<line x1="44" y1="0.5" x2="104" y2="0.5" stroke="black"/>
<rect x="58.5" y="17.5" width="31" height="39" fill="white" stroke="black"/>
<path d="M72.7425 34.804C72.8545 34.804 72.9245 34.72 72.9245 34.594V32.13C72.9245 32.004 72.8545 31.92 72.7425 31.92C72.6305 31.92 72.5465 32.004 72.5325 32.13C72.5185 32.368 72.4485 32.48 72.3645 32.48C72.3085 32.48 72.2105 32.438 72.0705 32.354C71.4405 31.948 70.8105 31.752 70.1805 31.752C69.4525 31.752 68.8505 31.976 68.3745 32.424C67.8565 32.914 67.5905 33.572 67.5905 34.398C67.5905 35.14 67.8425 35.728 68.3465 36.176C68.6125 36.414 69.1865 36.708 70.0405 37.128L70.2645 37.24C71.0905 37.646 71.6365 37.996 71.8885 38.318C72.1685 38.682 72.3225 39.102 72.3225 39.564C72.3225 40.194 72.1545 40.67 71.8185 41.034C71.4965 41.384 71.0625 41.552 70.5305 41.552C69.7045 41.552 69.0605 41.244 68.5565 40.6C68.1925 40.152 67.9685 39.522 67.8705 38.752C67.8565 38.64 67.8005 38.57 67.7165 38.57C67.5905 38.57 67.5065 38.654 67.5065 38.78V41.622C67.5065 41.748 67.5765 41.832 67.6605 41.832C67.7865 41.832 67.8705 41.748 67.8845 41.622C67.8985 41.342 67.9685 41.202 68.0945 41.202C68.1925 41.202 68.3325 41.286 68.5005 41.412C69.1305 41.888 69.8025 42.112 70.5305 42.112C71.1885 42.112 71.7485 41.93 72.2385 41.552C72.8965 41.048 73.2325 40.306 73.2325 39.354C73.2325 38.724 73.0645 38.178 72.7145 37.716C72.3505 37.24 71.5525 36.722 70.2925 36.19L69.9985 36.064C68.9625 35.616 68.4305 35 68.4305 34.16C68.4305 33.684 68.5845 33.264 68.8505 32.914C69.1865 32.48 69.6485 32.256 70.2225 32.256C70.9365 32.256 71.4965 32.536 71.9165 33.054C72.2525 33.488 72.4625 33.992 72.5465 34.622C72.5605 34.734 72.6305 34.804 72.7425 34.804ZM80.3775 41.636C80.3775 41.51 80.2795 41.426 80.1535 41.426C79.6355 41.412 79.3135 41.356 79.1595 41.258C78.9215 41.104 78.7955 40.824 78.7955 40.39V32.13C78.7955 31.878 78.5715 31.766 78.3615 31.892C77.8855 32.158 77.2135 32.354 76.3455 32.466C76.2335 32.48 76.1635 32.564 76.1635 32.676C76.1635 32.802 76.2475 32.886 76.3735 32.886H77.3535C77.7595 32.886 77.9695 33.138 77.9695 33.628V40.39C77.9695 40.852 77.8295 41.146 77.5635 41.286C77.4095 41.37 77.0735 41.412 76.5555 41.426C76.4295 41.426 76.3315 41.51 76.3315 41.636V41.65C76.3315 41.776 76.4155 41.86 76.5415 41.86H80.1675C80.2935 41.86 80.3775 41.776 80.3775 41.65V41.636Z" fill="black"/>
<path d="M103.615 61.664C103.615 61.552 103.531 61.468 103.419 61.454C103.083 61.426 102.845 61.37 102.705 61.272C102.509 61.146 102.397 60.838 102.397 60.348V53.516C102.397 53.012 102.523 52.704 102.761 52.578C102.915 52.494 103.139 52.438 103.419 52.396C103.531 52.382 103.615 52.312 103.615 52.2C103.615 52.074 103.531 51.99 103.405 51.99H101.361C101.277 51.99 101.207 52.046 101.179 52.13L98.5051 60.348L95.8171 52.13C95.7891 52.046 95.7191 51.99 95.6351 51.99H93.4931C93.3671 51.99 93.2831 52.074 93.2831 52.2C93.2831 52.312 93.3671 52.382 93.4791 52.396C93.8571 52.438 94.0811 52.508 94.2071 52.578C94.4171 52.704 94.5151 53.026 94.5151 53.53V60.362C94.5151 60.866 94.4031 61.188 94.1791 61.3C94.0251 61.384 93.8151 61.426 93.5211 61.454C93.4091 61.468 93.3251 61.538 93.3251 61.65C93.3251 61.776 93.4091 61.86 93.5351 61.86H96.0551C96.1811 61.86 96.2651 61.776 96.2651 61.664C96.2651 61.552 96.1811 61.468 96.0691 61.454C95.7751 61.412 95.5651 61.37 95.4111 61.272C95.2151 61.146 95.1031 60.838 95.1031 60.362V52.69H95.1591L98.0991 61.72C98.1271 61.804 98.1971 61.86 98.2811 61.86H98.4211C98.5051 61.86 98.5751 61.804 98.6031 61.72L101.557 52.676H101.585V60.348C101.585 60.866 101.487 61.188 101.249 61.3C101.123 61.37 100.899 61.426 100.591 61.454C100.479 61.468 100.395 61.538 100.395 61.65C100.395 61.776 100.479 61.86 100.605 61.86H103.405C103.531 61.86 103.615 61.776 103.615 61.664Z" fill="black"/>
<line x1="118.5" y1="111" x2="118.5" y2="38" stroke="black"/>
<line x1="32" y1="110.5" x2="119" y2="110.5" stroke="black"/>
<line x1="119" y1="75.5" x2="177" y2="75.5" stroke="black"/>
<rect x="132.5" y="55.5" width="31" height="39" fill="white" stroke="black"/>
<path d="M178.153 96.668C178.027 96.626 177.901 96.682 177.859 96.822C177.355 98.6 176.403 99.482 174.989 99.482C174.023 99.482 173.239 99.048 172.623 98.152C172.035 97.298 171.741 96.206 171.741 94.862C171.741 93.742 171.937 92.762 172.329 91.908C172.889 90.732 173.743 90.144 174.905 90.144C175.759 90.144 176.473 90.494 176.991 91.194C177.327 91.628 177.537 92.132 177.663 92.734C177.677 92.832 177.747 92.902 177.831 92.902C177.957 92.902 178.041 92.818 178.041 92.692V90.298C178.041 90.172 177.971 90.088 177.873 90.088C177.761 90.088 177.677 90.172 177.663 90.284C177.635 90.536 177.565 90.662 177.467 90.662C177.411 90.662 177.299 90.592 177.145 90.466C176.487 89.92 175.717 89.64 174.849 89.64C173.729 89.64 172.805 90.088 172.063 90.97C171.195 91.992 170.775 93.322 170.775 94.974C170.775 96.626 171.195 97.942 172.035 98.908C172.777 99.776 173.701 100.21 174.835 100.21C175.689 100.21 176.431 99.916 177.061 99.314C177.649 98.754 178.069 97.956 178.321 96.934C178.349 96.822 178.293 96.71 178.195 96.682L178.153 96.668Z" fill="black"/>
<path d="M146.736 72.804C146.848 72.804 146.918 72.72 146.918 72.594V70.13C146.918 70.004 146.848 69.92 146.736 69.92C146.624 69.92 146.54 70.004 146.526 70.13C146.512 70.368 146.442 70.48 146.358 70.48C146.302 70.48 146.204 70.438 146.064 70.354C145.434 69.948 144.804 69.752 144.174 69.752C143.446 69.752 142.844 69.976 142.368 70.424C141.85 70.914 141.584 71.572 141.584 72.398C141.584 73.14 141.836 73.728 142.34 74.176C142.606 74.414 143.18 74.708 144.034 75.128L144.258 75.24C145.084 75.646 145.63 75.996 145.882 76.318C146.162 76.682 146.316 77.102 146.316 77.564C146.316 78.194 146.148 78.67 145.812 79.034C145.49 79.384 145.056 79.552 144.524 79.552C143.698 79.552 143.054 79.244 142.55 78.6C142.186 78.152 141.962 77.522 141.864 76.752C141.85 76.64 141.794 76.57 141.71 76.57C141.584 76.57 141.5 76.654 141.5 76.78V79.622C141.5 79.748 141.57 79.832 141.654 79.832C141.78 79.832 141.864 79.748 141.878 79.622C141.892 79.342 141.962 79.202 142.088 79.202C142.186 79.202 142.326 79.286 142.494 79.412C143.124 79.888 143.796 80.112 144.524 80.112C145.182 80.112 145.742 79.93 146.232 79.552C146.89 79.048 147.226 78.306 147.226 77.354C147.226 76.724 147.058 76.178 146.708 75.716C146.344 75.24 145.546 74.722 144.286 74.19L143.992 74.064C142.956 73.616 142.424 73 142.424 72.16C142.424 71.684 142.578 71.264 142.844 70.914C143.18 70.48 143.642 70.256 144.216 70.256C144.93 70.256 145.49 70.536 145.91 71.054C146.246 71.488 146.456 71.992 146.54 72.622C146.554 72.734 146.624 72.804 146.736 72.804ZM155.519 76.738C155.519 76.612 155.435 76.528 155.309 76.528H153.965V70.046C153.965 69.92 153.881 69.836 153.755 69.836H153.629C153.573 69.836 153.517 69.864 153.475 69.92L149.149 76.416C149.135 76.444 149.121 76.472 149.121 76.514V76.92C149.121 77.046 149.205 77.13 149.331 77.13H153.223V78.376C153.223 78.866 153.083 79.174 152.831 79.3C152.705 79.37 152.467 79.426 152.117 79.454C152.005 79.468 151.921 79.538 151.921 79.65C151.921 79.776 152.005 79.86 152.131 79.86H154.931C155.057 79.86 155.141 79.776 155.141 79.65C155.141 79.538 155.057 79.468 154.945 79.454C154.581 79.412 154.315 79.342 154.189 79.23C154.049 79.118 153.965 78.824 153.965 78.376V77.13H155.309C155.435 77.13 155.519 77.046 155.519 76.92V76.738ZM153.223 71.264V76.528H149.723L153.223 71.264Z" fill="black"/>
<rect x="58.5" y="91.5" width="31" height="39" fill="white" stroke="black"/>
<path d="M103.615 135.664C103.615 135.552 103.531 135.468 103.419 135.454C103.083 135.426 102.845 135.37 102.705 135.272C102.509 135.146 102.397 134.838 102.397 134.348V127.516C102.397 127.012 102.523 126.704 102.761 126.578C102.915 126.494 103.139 126.438 103.419 126.396C103.531 126.382 103.615 126.312 103.615 126.2C103.615 126.074 103.531 125.99 103.405 125.99H101.361C101.277 125.99 101.207 126.046 101.179 126.13L98.5051 134.348L95.8171 126.13C95.7891 126.046 95.7191 125.99 95.6351 125.99H93.4931C93.3671 125.99 93.2831 126.074 93.2831 126.2C93.2831 126.312 93.3671 126.382 93.4791 126.396C93.8571 126.438 94.0811 126.508 94.2071 126.578C94.4171 126.704 94.5151 127.026 94.5151 127.53V134.362C94.5151 134.866 94.4031 135.188 94.1791 135.3C94.0251 135.384 93.8151 135.426 93.5211 135.454C93.4091 135.468 93.3251 135.538 93.3251 135.65C93.3251 135.776 93.4091 135.86 93.5351 135.86H96.0551C96.1811 135.86 96.2651 135.776 96.2651 135.664C96.2651 135.552 96.1811 135.468 96.0691 135.454C95.7751 135.412 95.5651 135.37 95.4111 135.272C95.2151 135.146 95.1031 134.838 95.1031 134.362V126.69H95.1591L98.0991 135.72C98.1271 135.804 98.1971 135.86 98.2811 135.86H98.4211C98.5051 135.86 98.5751 135.804 98.6031 135.72L101.557 126.676H101.585V134.348C101.585 134.866 101.487 135.188 101.249 135.3C101.123 135.37 100.899 135.426 100.591 135.454C100.479 135.468 100.395 135.538 100.395 135.65C100.395 135.776 100.479 135.86 100.605 135.86H103.405C103.531 135.86 103.615 135.776 103.615 135.664Z" fill="black"/>
<path d="M72.7425 108.804C72.8545 108.804 72.9245 108.72 72.9245 108.594V106.13C72.9245 106.004 72.8545 105.92 72.7425 105.92C72.6305 105.92 72.5465 106.004 72.5325 106.13C72.5185 106.368 72.4485 106.48 72.3645 106.48C72.3085 106.48 72.2105 106.438 72.0705 106.354C71.4405 105.948 70.8105 105.752 70.1805 105.752C69.4525 105.752 68.8505 105.976 68.3745 106.424C67.8565 106.914 67.5905 107.572 67.5905 108.398C67.5905 109.14 67.8425 109.728 68.3465 110.176C68.6125 110.414 69.1865 110.708 70.0405 111.128L70.2645 111.24C71.0905 111.646 71.6365 111.996 71.8885 112.318C72.1685 112.682 72.3225 113.102 72.3225 113.564C72.3225 114.194 72.1545 114.67 71.8185 115.034C71.4965 115.384 71.0625 115.552 70.5305 115.552C69.7045 115.552 69.0605 115.244 68.5565 114.6C68.1925 114.152 67.9685 113.522 67.8705 112.752C67.8565 112.64 67.8005 112.57 67.7165 112.57C67.5905 112.57 67.5065 112.654 67.5065 112.78V115.622C67.5065 115.748 67.5765 115.832 67.6605 115.832C67.7865 115.832 67.8705 115.748 67.8845 115.622C67.8985 115.342 67.9685 115.202 68.0945 115.202C68.1925 115.202 68.3325 115.286 68.5005 115.412C69.1305 115.888 69.8025 116.112 70.5305 116.112C71.1885 116.112 71.7485 115.93 72.2385 115.552C72.8965 115.048 73.2325 114.306 73.2325 113.354C73.2325 112.724 73.0645 112.178 72.7145 111.716C72.3505 111.24 71.5525 110.722 70.2925 110.19L69.9985 110.064C68.9625 109.616 68.4305 109 68.4305 108.16C68.4305 107.684 68.5845 107.264 68.8505 106.914C69.1865 106.48 69.6485 106.256 70.2225 106.256C70.9365 106.256 71.4965 106.536 71.9165 107.054C72.2525 107.488 72.4625 107.992 72.5465 108.622C72.5605 108.734 72.6305 108.804 72.7425 108.804ZM78.7675 110.596C80.0695 110.288 80.7135 109.462 80.7135 108.132C80.7135 107.474 80.5175 106.914 80.1395 106.466C79.6915 105.934 79.0475 105.654 78.2075 105.654C77.5775 105.654 77.0035 105.864 76.5135 106.27C75.9675 106.718 75.7015 107.236 75.7015 107.81C75.7015 108.412 75.9255 108.706 76.3595 108.706C76.7655 108.706 76.9475 108.468 76.9475 108.006C76.9475 107.586 76.7655 107.376 76.3875 107.376C76.4575 107.124 76.5975 106.9 76.8075 106.704C77.1715 106.368 77.6055 106.186 78.1235 106.186C78.6275 106.186 79.0475 106.382 79.3835 106.76C79.6775 107.11 79.8455 107.558 79.8455 108.118C79.8455 108.804 79.6495 109.364 79.2715 109.812C78.9075 110.232 78.4595 110.442 77.8995 110.442H77.5215C77.3955 110.442 77.3115 110.526 77.3115 110.652V110.792C77.3115 110.918 77.3955 111.002 77.5215 111.002H77.8995C78.5855 111.002 79.1035 111.24 79.4955 111.688C79.8595 112.108 80.0275 112.64 80.0275 113.27C80.0275 113.956 79.8315 114.502 79.4535 114.95C79.0615 115.426 78.5715 115.664 77.9555 115.664C77.3395 115.664 76.8495 115.468 76.5135 115.076C76.3175 114.866 76.2195 114.614 76.1915 114.362C76.2335 114.376 76.2895 114.376 76.3315 114.376C76.6815 114.376 76.8355 114.166 76.8355 113.732C76.8355 113.27 76.6395 113.032 76.2335 113.032C75.7575 113.032 75.5195 113.368 75.5195 114.026C75.5195 114.614 75.7575 115.118 76.2055 115.524C76.7095 116 77.3115 116.224 78.0395 116.224C78.9775 116.224 79.7195 115.902 80.2515 115.244C80.6995 114.712 80.9375 114.068 80.9375 113.298C80.9375 111.898 80.2235 111.03 78.7675 110.694V110.596Z" fill="black"/>
<rect x="0.5" y="91.5" width="31" height="39" fill="white" stroke="black"/>
<path d="M45.6151 135.664C45.6151 135.552 45.5311 135.468 45.4191 135.454C45.0831 135.426 44.8451 135.37 44.7051 135.272C44.5091 135.146 44.3971 134.838 44.3971 134.348V127.516C44.3971 127.012 44.5231 126.704 44.7611 126.578C44.9151 126.494 45.1391 126.438 45.4191 126.396C45.5311 126.382 45.6151 126.312 45.6151 126.2C45.6151 126.074 45.5311 125.99 45.4051 125.99H43.3611C43.2771 125.99 43.2071 126.046 43.1791 126.13L40.5051 134.348L37.8171 126.13C37.7891 126.046 37.7191 125.99 37.6351 125.99H35.4931C35.3671 125.99 35.2831 126.074 35.2831 126.2C35.2831 126.312 35.3671 126.382 35.4791 126.396C35.8571 126.438 36.0811 126.508 36.2071 126.578C36.4171 126.704 36.5151 127.026 36.5151 127.53V134.362C36.5151 134.866 36.4031 135.188 36.1791 135.3C36.0251 135.384 35.8151 135.426 35.5211 135.454C35.4091 135.468 35.3251 135.538 35.3251 135.65C35.3251 135.776 35.4091 135.86 35.5351 135.86H38.0551C38.1811 135.86 38.2651 135.776 38.2651 135.664C38.2651 135.552 38.1811 135.468 38.0691 135.454C37.7751 135.412 37.5651 135.37 37.4111 135.272C37.2151 135.146 37.1031 134.838 37.1031 134.362V126.69H37.1591L40.0991 135.72C40.1271 135.804 40.1971 135.86 40.2811 135.86H40.4211C40.5051 135.86 40.5751 135.804 40.6031 135.72L43.5571 126.676H43.5851V134.348C43.5851 134.866 43.4871 135.188 43.2491 135.3C43.1231 135.37 42.8991 135.426 42.5911 135.454C42.4791 135.468 42.3951 135.538 42.3951 135.65C42.3951 135.776 42.4791 135.86 42.6051 135.86H45.4051C45.5311 135.86 45.6151 135.776 45.6151 135.664Z" fill="black"/>
<path d="M14.7288 108.804C14.8408 108.804 14.9108 108.72 14.9108 108.594V106.13C14.9108 106.004 14.8408 105.92 14.7288 105.92C14.6168 105.92 14.5328 106.004 14.5188 106.13C14.5048 106.368 14.4348 106.48 14.3508 106.48C14.2948 106.48 14.1968 106.438 14.0568 106.354C13.4268 105.948 12.7968 105.752 12.1668 105.752C11.4388 105.752 10.8368 105.976 10.3608 106.424C9.84279 106.914 9.57679 107.572 9.57679 108.398C9.57679 109.14 9.82879 109.728 10.3328 110.176C10.5988 110.414 11.1728 110.708 12.0268 111.128L12.2508 111.24C13.0768 111.646 13.6228 111.996 13.8748 112.318C14.1548 112.682 14.3088 113.102 14.3088 113.564C14.3088 114.194 14.1408 114.67 13.8048 115.034C13.4828 115.384 13.0488 115.552 12.5168 115.552C11.6908 115.552 11.0468 115.244 10.5428 114.6C10.1788 114.152 9.95479 113.522 9.85679 112.752C9.84279 112.64 9.78679 112.57 9.70279 112.57C9.57679 112.57 9.49279 112.654 9.49279 112.78V115.622C9.49279 115.748 9.56279 115.832 9.64679 115.832C9.77279 115.832 9.85679 115.748 9.87079 115.622C9.88479 115.342 9.95479 115.202 10.0808 115.202C10.1788 115.202 10.3188 115.286 10.4868 115.412C11.1168 115.888 11.7888 116.112 12.5168 116.112C13.1748 116.112 13.7348 115.93 14.2248 115.552C14.8828 115.048 15.2188 114.306 15.2188 113.354C15.2188 112.724 15.0508 112.178 14.7008 111.716C14.3368 111.24 13.5388 110.722 12.2788 110.19L11.9848 110.064C10.9488 109.616 10.4168 109 10.4168 108.16C10.4168 107.684 10.5708 107.264 10.8368 106.914C11.1728 106.48 11.6348 106.256 12.2088 106.256C12.9228 106.256 13.4828 106.536 13.9028 107.054C14.2388 107.488 14.4488 107.992 14.5328 108.622C14.5468 108.734 14.6168 108.804 14.7288 108.804ZM22.9658 112.99C22.8678 112.99 22.7838 113.06 22.7698 113.172C22.6438 113.928 22.5038 114.404 22.3778 114.614C22.2238 114.88 21.9018 115.006 21.4118 115.006H18.2618C18.4858 113.83 19.2418 112.738 20.5298 111.772L20.8658 111.52C21.6638 110.918 22.1958 110.386 22.4758 109.924C22.7698 109.434 22.9098 108.902 22.9098 108.314C22.9098 107.46 22.6298 106.788 22.0838 106.284C21.6078 105.85 21.0198 105.64 20.3198 105.64C19.5638 105.64 18.9758 105.92 18.5138 106.452C18.0658 106.97 17.8418 107.544 17.8418 108.188C17.8418 108.804 18.0798 109.126 18.5418 109.126C18.9198 109.126 19.1158 108.902 19.1158 108.44C19.1158 108.02 18.9198 107.796 18.5418 107.782C18.5558 107.488 18.6398 107.208 18.8078 106.928C19.1158 106.41 19.6058 106.158 20.2778 106.158C20.6978 106.158 21.0618 106.298 21.3698 106.564C21.7758 106.942 21.9858 107.502 21.9858 108.244C21.9858 108.79 21.8318 109.294 21.5378 109.784C21.3138 110.134 20.8798 110.596 20.2358 111.184L20.0398 111.366C18.6818 112.626 17.8838 113.956 17.6318 115.286C17.6318 115.286 17.6318 115.3 17.6318 115.314V115.65C17.6318 115.776 17.7158 115.86 17.8418 115.86H22.6578C22.7698 115.86 22.8678 115.79 22.8678 115.678L23.1058 113.228C23.1198 113.102 23.0638 112.99 22.9658 112.99Z" fill="black"/>
</svg>
